<svg width="129" height="129" viewBox="0 0 129 129" fill="none" xmlns="http://www.w3.org/2000/svg">
<path fill-rule="evenodd" clip-rule="evenodd" d="M8.0625 64.5C8.0625 79.4682 14.0086 93.8233 24.5927 104.407C35.1767 114.991 49.5318 120.938 64.5 120.938C79.4682 120.938 93.8233 114.991 104.407 104.407C114.991 93.8233 120.938 79.4682 120.938 64.5C120.938 49.5318 114.991 35.1767 104.407 24.5927C93.8233 14.0086 79.4682 8.0625 64.5 8.0625C49.5318 8.0625 35.1767 14.0086 24.5927 24.5927C14.0086 35.1767 8.0625 49.5318 8.0625 64.5V64.5ZM129 64.5C129 81.6065 122.204 98.0123 110.108 110.108C98.0123 122.204 81.6065 129 64.5 129C47.3935 129 30.9877 122.204 18.8916 110.108C6.79552 98.0123 0 81.6065 0 64.5C0 47.3935 6.79552 30.9877 18.8916 18.8916C30.9877 6.79552 47.3935 0 64.5 0C81.6065 0 98.0123 6.79552 110.108 18.8916C122.204 30.9877 129 47.3935 129 64.5V64.5ZM36.2812 60.4688C35.2121 60.4688 34.1867 60.8935 33.4307 61.6495C32.6747 62.4055 32.25 63.4308 32.25 64.5C32.25 65.5692 32.6747 66.5945 33.4307 67.3505C34.1867 68.1065 35.2121 68.5312 36.2812 68.5312H82.9873L65.6771 85.8334C65.3023 86.2082 65.005 86.6531 64.8022 87.1429C64.5993 87.6326 64.4949 88.1574 64.4949 88.6875C64.4949 89.2176 64.5993 89.7424 64.8022 90.2321C65.005 90.7219 65.3023 91.1668 65.6771 91.5416C66.0519 91.9164 66.4969 92.2138 66.9866 92.4166C67.4763 92.6194 68.0012 92.7238 68.5312 92.7238C69.0613 92.7238 69.5862 92.6194 70.0759 92.4166C70.5656 92.2138 71.0106 91.9164 71.3854 91.5416L95.5729 67.3541C95.9483 66.9797 96.2461 66.5348 96.4494 66.045C96.6526 65.5553 96.7572 65.0302 96.7572 64.5C96.7572 63.9698 96.6526 63.4447 96.4494 62.955C96.2461 62.4652 95.9483 62.0203 95.5729 61.6459L71.3854 37.4584C71.0106 37.0836 70.5656 36.7862 70.0759 36.5834C69.5862 36.3806 69.0613 36.2762 68.5312 36.2762C68.0012 36.2762 67.4763 36.3806 66.9866 36.5834C66.4969 36.7862 66.0519 37.0836 65.6771 37.4584C65.3023 37.8332 65.005 38.2781 64.8022 38.7679C64.5993 39.2576 64.4949 39.7824 64.4949 40.3125C64.4949 40.8426 64.5993 41.3674 64.8022 41.8571C65.005 42.3469 65.3023 42.7918 65.6771 43.1666L82.9873 60.4688H36.2812Z" fill="white"/>
</svg>
