<svg width="288" height="358" viewBox="0 0 288 358" fill="none" xmlns="http://www.w3.org/2000/svg">
<g filter="url(#filter0_b_50_148)">
<rect width="288" height="358" rx="10" fill="#303030"/>
</g>
<path d="M22.5781 19.5781H23.8203V26.1797C23.8203 26.4297 23.8177 26.7031 23.8125 27C23.8073 27.2917 23.7995 27.5781 23.7891 27.8594C23.7786 28.1406 23.7656 28.3958 23.75 28.625C23.7396 28.8542 23.7292 29.0312 23.7188 29.1562H23.7812L30.1406 19.5781H31.6016V31H30.3594V24.4766C30.3594 24.2005 30.3646 23.9089 30.375 23.6016C30.3854 23.2891 30.3958 22.987 30.4062 22.6953C30.4219 22.4036 30.4375 22.1432 30.4531 21.9141C30.4688 21.6797 30.4792 21.5 30.4844 21.375H30.4141L24.0469 31H22.5781V19.5781ZM36.7266 22.2812C37.3672 22.2812 37.9219 22.3698 38.3906 22.5469C38.8594 22.7188 39.2214 22.9714 39.4766 23.3047C39.7318 23.638 39.8594 24.0443 39.8594 24.5234C39.8594 25.0391 39.7188 25.4505 39.4375 25.7578C39.1562 26.0651 38.7682 26.2865 38.2734 26.4219V26.4844C38.6224 26.5781 38.9375 26.7135 39.2188 26.8906C39.5052 27.0625 39.7318 27.2917 39.8984 27.5781C40.0703 27.8594 40.1562 28.2109 40.1562 28.6328C40.1562 29.112 40.026 29.5443 39.7656 29.9297C39.5052 30.3099 39.1094 30.6094 38.5781 30.8281C38.0469 31.0469 37.375 31.1562 36.5625 31.1562C36.1615 31.1562 35.7812 31.1328 35.4219 31.0859C35.0625 31.0443 34.737 30.9818 34.4453 30.8984C34.1536 30.8151 33.8984 30.7161 33.6797 30.6016V29.4219C34.0443 29.599 34.4714 29.7552 34.9609 29.8906C35.4505 30.026 35.9792 30.0938 36.5469 30.0938C36.9844 30.0938 37.3776 30.0443 37.7266 29.9453C38.0755 29.8411 38.3516 29.6771 38.5547 29.4531C38.763 29.224 38.8672 28.9245 38.8672 28.5547C38.8672 28.2161 38.776 27.9375 38.5938 27.7188C38.4115 27.4948 38.138 27.3307 37.7734 27.2266C37.4141 27.1172 36.9583 27.0625 36.4062 27.0625H35.2578V26H36.2031C36.9375 26 37.5234 25.8958 37.9609 25.6875C38.3984 25.4792 38.6172 25.1276 38.6172 24.6328C38.6172 24.2057 38.4479 23.888 38.1094 23.6797C37.7708 23.4661 37.2865 23.3594 36.6562 23.3594C36.1875 23.3594 35.7734 23.4089 35.4141 23.5078C35.0547 23.6016 34.6667 23.737 34.25 23.9141L33.7891 22.875C34.237 22.6771 34.7057 22.5286 35.1953 22.4297C35.6849 22.3307 36.1953 22.2812 36.7266 22.2812ZM51.2969 22.4375V31H50.125V25.4219C50.125 25.1927 50.1302 24.9609 50.1406 24.7266C50.1562 24.487 50.1745 24.2474 50.1953 24.0078H50.1484L47.3047 31H46.2031L43.4297 24.0078H43.3828C43.3984 24.2474 43.4089 24.487 43.4141 24.7266C43.4245 24.9609 43.4297 25.2083 43.4297 25.4688V31H42.25V22.4375H43.9922L46.7578 29.4375L49.5625 22.4375H51.2969ZM57.2891 22.2812C58.0182 22.2812 58.6432 22.4427 59.1641 22.7656C59.6849 23.0885 60.0833 23.5417 60.3594 24.125C60.6354 24.7031 60.7734 25.3802 60.7734 26.1562V26.9609H54.8594C54.875 27.9661 55.125 28.7318 55.6094 29.2578C56.0938 29.7839 56.776 30.0469 57.6562 30.0469C58.1979 30.0469 58.6771 29.9974 59.0938 29.8984C59.5104 29.7995 59.9427 29.6536 60.3906 29.4609V30.6016C59.9583 30.7943 59.5286 30.9349 59.1016 31.0234C58.6797 31.112 58.1797 31.1562 57.6016 31.1562C56.7786 31.1562 56.0599 30.9896 55.4453 30.6562C54.8359 30.3177 54.362 29.8229 54.0234 29.1719C53.6849 28.5208 53.5156 27.724 53.5156 26.7812C53.5156 25.8594 53.6693 25.0625 53.9766 24.3906C54.2891 23.7135 54.7266 23.1927 55.2891 22.8281C55.8568 22.4635 56.5234 22.2812 57.2891 22.2812ZM57.2734 23.3438C56.5807 23.3438 56.0286 23.5703 55.6172 24.0234C55.2057 24.4766 54.9609 25.1094 54.8828 25.9219H59.4141C59.4089 25.4115 59.3281 24.9635 59.1719 24.5781C59.0208 24.1875 58.7891 23.8854 58.4766 23.6719C58.1641 23.4531 57.763 23.3438 57.2734 23.3438ZM64.2812 22.4375V26.0312H69.0547V22.4375H70.3516V31H69.0547V27.1328H64.2812V31H62.9766V22.4375H64.2812ZM74.3359 22.4375V27.8203C74.3359 27.9245 74.3333 28.0599 74.3281 28.2266C74.3229 28.388 74.3151 28.5625 74.3047 28.75C74.2943 28.9323 74.2839 29.1094 74.2734 29.2812C74.2682 29.4479 74.2604 29.5859 74.25 29.6953L78.9219 22.4375H80.5156V31H79.3047V25.75C79.3047 25.5833 79.3073 25.3698 79.3125 25.1094C79.3177 24.849 79.3255 24.5938 79.3359 24.3438C79.3464 24.0885 79.3542 23.8906 79.3594 23.75L74.7031 31H73.1016V22.4375H74.3359ZM89.1094 23.5391H86.2891V31H85.0078V23.5391H82.2266V22.4375H89.1094V23.5391ZM92.1094 25.9688H94.7344C95.4635 25.9688 96.0703 26.0599 96.5547 26.2422C97.0391 26.4245 97.401 26.6953 97.6406 27.0547C97.8854 27.4141 98.0078 27.8594 98.0078 28.3906C98.0078 28.9219 97.888 29.3828 97.6484 29.7734C97.4141 30.1641 97.0495 30.4661 96.5547 30.6797C96.0651 30.8932 95.4323 31 94.6562 31H90.8047V22.4375H92.1094V25.9688ZM96.7031 28.4531C96.7031 27.9271 96.5156 27.5625 96.1406 27.3594C95.7708 27.151 95.2526 27.0469 94.5859 27.0469H92.1094V29.9453H94.5938C95.2188 29.9453 95.7266 29.8307 96.1172 29.6016C96.5078 29.3672 96.7031 28.9844 96.7031 28.4531ZM111.57 22.4375V31H110.266V23.5547H105.703V31H104.398V22.4375H111.57ZM117.523 22.2969C118.544 22.2969 119.302 22.526 119.797 22.9844C120.292 23.4427 120.539 24.1745 120.539 25.1797V31H119.594L119.344 29.7344H119.281C119.042 30.0469 118.792 30.3099 118.531 30.5234C118.271 30.7318 117.969 30.8906 117.625 31C117.286 31.1042 116.87 31.1562 116.375 31.1562C115.854 31.1562 115.391 31.0651 114.984 30.8828C114.583 30.7005 114.266 30.4245 114.031 30.0547C113.802 29.6849 113.688 29.2161 113.688 28.6484C113.688 27.7943 114.026 27.138 114.703 26.6797C115.38 26.2214 116.411 25.9714 117.797 25.9297L119.273 25.8672V25.3438C119.273 24.6042 119.115 24.0859 118.797 23.7891C118.479 23.4922 118.031 23.3438 117.453 23.3438C117.005 23.3438 116.578 23.4089 116.172 23.5391C115.766 23.6693 115.38 23.8229 115.016 24L114.617 23.0156C115.003 22.8177 115.445 22.6484 115.945 22.5078C116.445 22.3672 116.971 22.2969 117.523 22.2969ZM119.258 26.7812L117.953 26.8359C116.885 26.8776 116.133 27.0521 115.695 27.3594C115.258 27.6667 115.039 28.1016 115.039 28.6641C115.039 29.1536 115.188 29.5156 115.484 29.75C115.781 29.9844 116.174 30.1016 116.664 30.1016C117.424 30.1016 118.047 29.8906 118.531 29.4688C119.016 29.0469 119.258 28.4141 119.258 27.5703V26.7812ZM127.234 22.2812C128.302 22.2812 129.154 22.6484 129.789 23.3828C130.424 24.1172 130.742 25.2214 130.742 26.6953C130.742 27.6693 130.596 28.487 130.305 29.1484C130.013 29.8099 129.602 30.3099 129.07 30.6484C128.544 30.987 127.922 31.1562 127.203 31.1562C126.75 31.1562 126.352 31.0964 126.008 30.9766C125.664 30.8568 125.37 30.6953 125.125 30.4922C124.88 30.2891 124.677 30.0677 124.516 29.8281H124.422C124.438 30.0312 124.456 30.276 124.477 30.5625C124.503 30.849 124.516 31.099 124.516 31.3125V34.8281H123.211V22.4375H124.281L124.453 23.7031H124.516C124.682 23.4427 124.885 23.2057 125.125 22.9922C125.365 22.7734 125.656 22.6016 126 22.4766C126.349 22.3464 126.76 22.2812 127.234 22.2812ZM127.008 23.375C126.414 23.375 125.935 23.4896 125.57 23.7188C125.211 23.9479 124.948 24.2917 124.781 24.75C124.615 25.2031 124.526 25.7734 124.516 26.4609V26.7109C124.516 27.4349 124.594 28.0469 124.75 28.5469C124.911 29.0469 125.174 29.4271 125.539 29.6875C125.909 29.9479 126.404 30.0781 127.023 30.0781C127.555 30.0781 127.997 29.9349 128.352 29.6484C128.706 29.362 128.969 28.9635 129.141 28.4531C129.318 27.9375 129.406 27.3464 129.406 26.6797C129.406 25.6693 129.208 24.8672 128.812 24.2734C128.422 23.6745 127.82 23.375 127.008 23.375ZM140.391 26.7031C140.391 27.4062 140.299 28.0339 140.117 28.5859C139.935 29.138 139.672 29.6042 139.328 29.9844C138.984 30.3646 138.568 30.6562 138.078 30.8594C137.594 31.0573 137.044 31.1562 136.43 31.1562C135.857 31.1562 135.331 31.0573 134.852 30.8594C134.378 30.6562 133.966 30.3646 133.617 29.9844C133.273 29.6042 133.005 29.138 132.812 28.5859C132.625 28.0339 132.531 27.4062 132.531 26.7031C132.531 25.7656 132.69 24.9688 133.008 24.3125C133.326 23.651 133.779 23.1484 134.367 22.8047C134.961 22.4557 135.667 22.2812 136.484 22.2812C137.266 22.2812 137.948 22.4557 138.531 22.8047C139.12 23.1536 139.576 23.6589 139.898 24.3203C140.227 24.9766 140.391 25.7708 140.391 26.7031ZM133.875 26.7031C133.875 27.3906 133.966 27.987 134.148 28.4922C134.331 28.9974 134.612 29.388 134.992 29.6641C135.372 29.9401 135.862 30.0781 136.461 30.0781C137.055 30.0781 137.542 29.9401 137.922 29.6641C138.307 29.388 138.591 28.9974 138.773 28.4922C138.956 27.987 139.047 27.3906 139.047 26.7031C139.047 26.0208 138.956 25.4323 138.773 24.9375C138.591 24.4375 138.31 24.0521 137.93 23.7812C137.549 23.5104 137.057 23.375 136.453 23.375C135.562 23.375 134.909 23.6693 134.492 24.2578C134.081 24.8464 133.875 25.6615 133.875 26.7031ZM149.055 31H147.734V23.5234H145.133C145.029 24.8724 144.896 26.0286 144.734 26.9922C144.578 27.9505 144.38 28.7344 144.141 29.3438C143.906 29.9479 143.62 30.3932 143.281 30.6797C142.948 30.9609 142.549 31.1016 142.086 31.1016C141.945 31.1016 141.812 31.0938 141.688 31.0781C141.562 31.0625 141.456 31.0365 141.367 31V30.0156C141.435 30.0365 141.505 30.0521 141.578 30.0625C141.656 30.0729 141.737 30.0781 141.82 30.0781C142.055 30.0781 142.268 29.9818 142.461 29.7891C142.659 29.5911 142.836 29.2943 142.992 28.8984C143.154 28.5026 143.297 28.0026 143.422 27.3984C143.547 26.7891 143.656 26.0729 143.75 25.25C143.849 24.4219 143.935 23.4844 144.008 22.4375H149.055V31ZM153.094 25.9688H155.719C156.448 25.9688 157.055 26.0599 157.539 26.2422C158.023 26.4245 158.385 26.6953 158.625 27.0547C158.87 27.4141 158.992 27.8594 158.992 28.3906C158.992 28.9219 158.872 29.3828 158.633 29.7734C158.398 30.1641 158.034 30.4661 157.539 30.6797C157.049 30.8932 156.417 31 155.641 31H151.789V22.4375H153.094V25.9688ZM157.688 28.4531C157.688 27.9271 157.5 27.5625 157.125 27.3594C156.755 27.151 156.237 27.0469 155.57 27.0469H153.094V29.9453H155.578C156.203 29.9453 156.711 29.8307 157.102 29.6016C157.492 29.3672 157.688 28.9844 157.688 28.4531Z" fill="white"/>
<path d="M28.1877 67.5781V77.8125H29.594V81.9844H28.3206V79H20.3831V81.9844H19.1096V77.8125H19.9846C20.3752 77.1458 20.7398 76.3984 21.0784 75.5703C21.4221 74.737 21.7268 73.8672 21.9924 72.9609C22.2633 72.0495 22.482 71.1354 22.6487 70.2188C22.8206 69.3021 22.9299 68.4219 22.9768 67.5781H28.1877ZM26.8674 68.7734H24.1487C24.1018 69.4193 23.9976 70.1406 23.8362 70.9375C23.6747 71.7292 23.4664 72.5417 23.2112 73.375C22.9612 74.2083 22.6799 75.0078 22.3674 75.7734C22.0601 76.5391 21.7346 77.2188 21.3909 77.8125H26.8674V68.7734ZM34.5393 70.2969C35.5601 70.2969 36.318 70.526 36.8127 70.9844C37.3075 71.4427 37.5549 72.1745 37.5549 73.1797V79H36.6096L36.3596 77.7344H36.2971C36.0575 78.0469 35.8075 78.3099 35.5471 78.5234C35.2867 78.7318 34.9846 78.8906 34.6409 79C34.3023 79.1042 33.8857 79.1562 33.3909 79.1562C32.87 79.1562 32.4065 79.0651 32.0002 78.8828C31.5992 78.7005 31.2815 78.4245 31.0471 78.0547C30.818 77.6849 30.7034 77.2161 30.7034 76.6484C30.7034 75.7943 31.0419 75.138 31.719 74.6797C32.3961 74.2214 33.4273 73.9714 34.8127 73.9297L36.2893 73.8672V73.3438C36.2893 72.6042 36.1305 72.0859 35.8127 71.7891C35.495 71.4922 35.0471 71.3438 34.469 71.3438C34.0211 71.3438 33.594 71.4089 33.1877 71.5391C32.7815 71.6693 32.3961 71.8229 32.0315 72L31.6331 71.0156C32.0185 70.8177 32.4612 70.6484 32.9612 70.5078C33.4612 70.3672 33.9872 70.2969 34.5393 70.2969ZM36.2737 74.7812L34.969 74.8359C33.9013 74.8776 33.1487 75.0521 32.7112 75.3594C32.2737 75.6667 32.0549 76.1016 32.0549 76.6641C32.0549 77.1536 32.2034 77.5156 32.5002 77.75C32.7971 77.9844 33.1903 78.1016 33.6799 78.1016C34.4403 78.1016 35.0627 77.8906 35.5471 77.4688C36.0315 77.0469 36.2737 76.4141 36.2737 75.5703V74.7812ZM46.0627 71.5391H43.2424V79H41.9612V71.5391H39.1799V70.4375H46.0627V71.5391ZM50.9612 70.2969C51.982 70.2969 52.7398 70.526 53.2346 70.9844C53.7294 71.4427 53.9768 72.1745 53.9768 73.1797V79H53.0315L52.7815 77.7344H52.719C52.4794 78.0469 52.2294 78.3099 51.969 78.5234C51.7086 78.7318 51.4065 78.8906 51.0627 79C50.7242 79.1042 50.3075 79.1562 49.8127 79.1562C49.2919 79.1562 48.8284 79.0651 48.4221 78.8828C48.0211 78.7005 47.7034 78.4245 47.469 78.0547C47.2398 77.6849 47.1252 77.2161 47.1252 76.6484C47.1252 75.7943 47.4638 75.138 48.1409 74.6797C48.818 74.2214 49.8492 73.9714 51.2346 73.9297L52.7112 73.8672V73.3438C52.7112 72.6042 52.5523 72.0859 52.2346 71.7891C51.9169 71.4922 51.469 71.3438 50.8909 71.3438C50.443 71.3438 50.0159 71.4089 49.6096 71.5391C49.2034 71.6693 48.818 71.8229 48.4534 72L48.0549 71.0156C48.4403 70.8177 48.8831 70.6484 49.3831 70.5078C49.8831 70.3672 50.4091 70.2969 50.9612 70.2969ZM52.6956 74.7812L51.3909 74.8359C50.3232 74.8776 49.5706 75.0521 49.1331 75.3594C48.6956 75.6667 48.4768 76.1016 48.4768 76.6641C48.4768 77.1536 48.6252 77.5156 48.9221 77.75C49.219 77.9844 49.6122 78.1016 50.1018 78.1016C50.8622 78.1016 51.4846 77.8906 51.969 77.4688C52.4534 77.0469 52.6956 76.4141 52.6956 75.5703V74.7812ZM64.8284 70.2812C65.8961 70.2812 66.7476 70.6484 67.3831 71.3828C68.0185 72.1172 68.3362 73.2214 68.3362 74.6953C68.3362 75.6693 68.1903 76.487 67.8987 77.1484C67.607 77.8099 67.1956 78.3099 66.6643 78.6484C66.1383 78.987 65.5159 79.1562 64.7971 79.1562C64.344 79.1562 63.9456 79.0964 63.6018 78.9766C63.2581 78.8568 62.9638 78.6953 62.719 78.4922C62.4742 78.2891 62.2711 78.0677 62.1096 77.8281H62.0159C62.0315 78.0312 62.0497 78.276 62.0706 78.5625C62.0966 78.849 62.1096 79.099 62.1096 79.3125V82.8281H60.8049V70.4375H61.8752L62.0471 71.7031H62.1096C62.2763 71.4427 62.4794 71.2057 62.719 70.9922C62.9586 70.7734 63.2502 70.6016 63.594 70.4766C63.943 70.3464 64.3544 70.2812 64.8284 70.2812ZM64.6018 71.375C64.0081 71.375 63.5289 71.4896 63.1643 71.7188C62.8049 71.9479 62.5419 72.2917 62.3752 72.75C62.2086 73.2031 62.12 73.7734 62.1096 74.4609V74.7109C62.1096 75.4349 62.1877 76.0469 62.344 76.5469C62.5055 77.0469 62.7685 77.4271 63.1331 77.6875C63.5028 77.9479 63.9976 78.0781 64.6174 78.0781C65.1487 78.0781 65.5914 77.9349 65.9456 77.6484C66.2997 77.362 66.5627 76.9635 66.7346 76.4531C66.9117 75.9375 67.0002 75.3464 67.0002 74.6797C67.0002 73.6693 66.8023 72.8672 66.4065 72.2734C66.0159 71.6745 65.4143 71.375 64.6018 71.375ZM77.9846 74.7031C77.9846 75.4062 77.8935 76.0339 77.7112 76.5859C77.5289 77.138 77.2659 77.6042 76.9221 77.9844C76.5784 78.3646 76.1617 78.6562 75.6721 78.8594C75.1877 79.0573 74.6383 79.1562 74.0237 79.1562C73.4508 79.1562 72.9247 79.0573 72.4456 78.8594C71.9716 78.6562 71.5601 78.3646 71.2112 77.9844C70.8674 77.6042 70.5992 77.138 70.4065 76.5859C70.219 76.0339 70.1252 75.4062 70.1252 74.7031C70.1252 73.7656 70.2841 72.9688 70.6018 72.3125C70.9195 71.651 71.3726 71.1484 71.9612 70.8047C72.5549 70.4557 73.2607 70.2812 74.0784 70.2812C74.8596 70.2812 75.5419 70.4557 76.1252 70.8047C76.7138 71.1536 77.1695 71.6589 77.4924 72.3203C77.8206 72.9766 77.9846 73.7708 77.9846 74.7031ZM71.469 74.7031C71.469 75.3906 71.5601 75.987 71.7424 76.4922C71.9247 76.9974 72.206 77.388 72.5862 77.6641C72.9664 77.9401 73.456 78.0781 74.0549 78.0781C74.6487 78.0781 75.1357 77.9401 75.5159 77.6641C75.9013 77.388 76.1851 76.9974 76.3674 76.4922C76.5497 75.987 76.6409 75.3906 76.6409 74.7031C76.6409 74.0208 76.5497 73.4323 76.3674 72.9375C76.1851 72.4375 75.9039 72.0521 75.5237 71.7812C75.1435 71.5104 74.6513 71.375 74.0471 71.375C73.1565 71.375 72.5028 71.6693 72.0862 72.2578C71.6747 72.8464 71.469 73.6615 71.469 74.7031ZM90.2581 70.4375L86.6956 74.6016L90.5627 79H89.0784L85.3284 74.6562V79H84.1174V74.6562L80.3752 79H78.8909L82.7581 74.6016L79.1877 70.4375H80.6174L84.1174 74.5938V70.4375H85.3284V74.5938L88.844 70.4375H90.2581ZM98.2659 70.4375V77.8984H99.4924V81.9609H98.2346V79H92.1721V81.9609H90.9299V77.8984H91.6018C92.0914 77.2214 92.4976 76.4792 92.8206 75.6719C93.1435 74.8646 93.3883 74.0182 93.5549 73.1328C93.7216 72.2422 93.8101 71.3438 93.8206 70.4375H98.2659ZM97.0081 71.4688H94.9768C94.9299 72.2292 94.818 73.0026 94.6409 73.7891C94.469 74.5755 94.2398 75.3255 93.9534 76.0391C93.6669 76.7474 93.3336 77.3672 92.9534 77.8984H97.0081V71.4688ZM104.492 70.2812C105.222 70.2812 105.847 70.4427 106.367 70.7656C106.888 71.0885 107.287 71.5417 107.563 72.125C107.839 72.7031 107.977 73.3802 107.977 74.1562V74.9609H102.063C102.078 75.9661 102.328 76.7318 102.813 77.2578C103.297 77.7839 103.979 78.0469 104.86 78.0469C105.401 78.0469 105.88 77.9974 106.297 77.8984C106.714 77.7995 107.146 77.6536 107.594 77.4609V78.6016C107.162 78.7943 106.732 78.9349 106.305 79.0234C105.883 79.112 105.383 79.1562 104.805 79.1562C103.982 79.1562 103.263 78.9896 102.649 78.6562C102.039 78.3177 101.565 77.8229 101.227 77.1719C100.888 76.5208 100.719 75.724 100.719 74.7812C100.719 73.8594 100.873 73.0625 101.18 72.3906C101.492 71.7135 101.93 71.1927 102.492 70.8281C103.06 70.4635 103.727 70.2812 104.492 70.2812ZM104.477 71.3438C103.784 71.3438 103.232 71.5703 102.821 72.0234C102.409 72.4766 102.164 73.1094 102.086 73.9219H106.617C106.612 73.4115 106.531 72.9635 106.375 72.5781C106.224 72.1875 105.992 71.8854 105.68 71.6719C105.367 71.4531 104.966 71.3438 104.477 71.3438ZM111.485 70.4375V74.0312H116.258V70.4375H117.555V79H116.258V75.1328H111.485V79H110.18V70.4375H111.485ZM121.539 70.4375V75.8203C121.539 75.9245 121.537 76.0599 121.531 76.2266C121.526 76.388 121.518 76.5625 121.508 76.75C121.498 76.9323 121.487 77.1094 121.477 77.2812C121.472 77.4479 121.464 77.5859 121.453 77.6953L126.125 70.4375H127.719V79H126.508V73.75C126.508 73.5833 126.511 73.3698 126.516 73.1094C126.521 72.849 126.529 72.5938 126.539 72.3438C126.55 72.0885 126.558 71.8906 126.563 71.75L121.906 79H120.305V70.4375H121.539ZM130.891 79H129.375L131.844 75.3906C131.485 75.3125 131.151 75.1797 130.844 74.9922C130.537 74.7995 130.287 74.5365 130.094 74.2031C129.906 73.8698 129.813 73.4557 129.813 72.9609C129.813 72.138 130.086 71.513 130.633 71.0859C131.185 70.6536 131.912 70.4375 132.813 70.4375H136.602V79H135.305V75.5625H133.133L130.891 79ZM131.071 72.9688C131.071 73.4792 131.253 73.8594 131.617 74.1094C131.982 74.3542 132.503 74.4766 133.18 74.4766H135.305V71.5234H132.953C132.287 71.5234 131.805 71.6589 131.508 71.9297C131.216 72.1953 131.071 72.5417 131.071 72.9688Z" fill="white"/>
<path d="M21.915 99H20.8076V91.918C20.8076 91.6491 20.8076 91.4189 20.8076 91.2275C20.8122 91.0316 20.8167 90.8538 20.8213 90.6943C20.8304 90.5303 20.8418 90.3639 20.8555 90.1953C20.7142 90.3411 20.582 90.4665 20.459 90.5713C20.3359 90.6715 20.1833 90.7969 20.001 90.9473L18.8594 91.8633L18.2646 91.0908L20.9717 89.0059H21.915V99ZM32.251 99H25.7021V98.0498L28.375 95.3359C28.8717 94.8346 29.2887 94.388 29.626 93.9961C29.9678 93.6042 30.2275 93.2191 30.4053 92.8408C30.583 92.458 30.6719 92.0387 30.6719 91.583C30.6719 91.0179 30.5033 90.5872 30.166 90.291C29.8333 89.9902 29.3936 89.8398 28.8467 89.8398C28.3682 89.8398 27.9443 89.9219 27.5752 90.0859C27.2061 90.25 26.8278 90.4824 26.4404 90.7832L25.832 90.0176C26.0964 89.7943 26.3835 89.596 26.6934 89.4229C27.0078 89.2497 27.3428 89.113 27.6982 89.0127C28.0583 88.9124 28.4411 88.8623 28.8467 88.8623C29.4619 88.8623 29.9928 88.9694 30.4395 89.1836C30.8861 89.3978 31.2301 89.7031 31.4717 90.0996C31.7178 90.4961 31.8408 90.9678 31.8408 91.5146C31.8408 92.0433 31.736 92.5355 31.5264 92.9912C31.3167 93.4424 31.0228 93.8913 30.6445 94.3379C30.2663 94.7799 29.8242 95.2493 29.3184 95.7461L27.1445 97.9131V97.9609H32.251V99ZM45.7656 91.5078V99H44.7402V94.1191C44.7402 93.9186 44.7448 93.7158 44.7539 93.5107C44.7676 93.3011 44.7835 93.0915 44.8018 92.8818H44.7607L42.2725 99H41.3086L38.8818 92.8818H38.8408C38.8545 93.0915 38.8636 93.3011 38.8682 93.5107C38.8773 93.7158 38.8818 93.9323 38.8818 94.1602V99H37.8496V91.5078H39.374L41.7939 97.6328L44.248 91.5078H45.7656ZM50.9268 91.3848C51.82 91.3848 52.4831 91.5853 52.916 91.9863C53.349 92.3874 53.5654 93.0277 53.5654 93.9072V99H52.7383L52.5195 97.8926H52.4648C52.2552 98.166 52.0365 98.3962 51.8086 98.583C51.5807 98.7653 51.3164 98.9043 51.0156 99C50.7194 99.0911 50.3548 99.1367 49.9219 99.1367C49.4661 99.1367 49.0605 99.057 48.7051 98.8975C48.3542 98.738 48.0762 98.4964 47.8711 98.1729C47.6706 97.8493 47.5703 97.4391 47.5703 96.9424C47.5703 96.195 47.8665 95.6208 48.459 95.2197C49.0514 94.8187 49.9538 94.5999 51.166 94.5635L52.458 94.5088V94.0508C52.458 93.4036 52.319 92.9502 52.041 92.6904C51.763 92.4307 51.3711 92.3008 50.8652 92.3008C50.4733 92.3008 50.0996 92.3577 49.7441 92.4717C49.3887 92.5856 49.0514 92.7201 48.7324 92.875L48.3838 92.0137C48.721 91.8405 49.1084 91.6924 49.5459 91.5693C49.9834 91.4463 50.4437 91.3848 50.9268 91.3848ZM52.4443 95.3086L51.3027 95.3564C50.3685 95.3929 49.71 95.5456 49.3271 95.8145C48.9443 96.0833 48.7529 96.4639 48.7529 96.9561C48.7529 97.3844 48.8828 97.7012 49.1426 97.9062C49.4023 98.1113 49.7464 98.2139 50.1748 98.2139C50.8402 98.2139 51.3848 98.0293 51.8086 97.6602C52.2324 97.291 52.4443 96.7373 52.4443 95.999V95.3086ZM59.4238 91.3711C60.3581 91.3711 61.1032 91.6924 61.6592 92.335C62.2152 92.9775 62.4932 93.9437 62.4932 95.2334C62.4932 96.0856 62.3656 96.8011 62.1104 97.3799C61.8551 97.9587 61.4951 98.3962 61.0303 98.6924C60.57 98.9886 60.0254 99.1367 59.3965 99.1367C59 99.1367 58.6514 99.0843 58.3506 98.9795C58.0498 98.8747 57.7923 98.7334 57.5781 98.5557C57.3639 98.3779 57.1862 98.1842 57.0449 97.9746H56.9629C56.9766 98.1523 56.9925 98.3665 57.0107 98.6172C57.0335 98.8678 57.0449 99.0866 57.0449 99.2734V102.35H55.9033V91.5078H56.8398L56.9902 92.6152H57.0449C57.1908 92.3874 57.3685 92.18 57.5781 91.9932C57.7878 91.8018 58.043 91.6514 58.3438 91.542C58.6491 91.4281 59.0091 91.3711 59.4238 91.3711ZM59.2256 92.3281C58.7061 92.3281 58.2868 92.4284 57.9678 92.6289C57.6533 92.8294 57.4232 93.1302 57.2773 93.5312C57.1315 93.9277 57.054 94.4268 57.0449 95.0283V95.2471C57.0449 95.8805 57.1133 96.416 57.25 96.8535C57.3913 97.291 57.6214 97.6237 57.9404 97.8516C58.264 98.0794 58.6969 98.1934 59.2393 98.1934C59.7041 98.1934 60.0915 98.068 60.4014 97.8174C60.7113 97.5667 60.9414 97.2181 61.0918 96.7715C61.2467 96.3203 61.3242 95.8031 61.3242 95.2197C61.3242 94.3356 61.151 93.6338 60.8047 93.1143C60.4629 92.5902 59.9365 92.3281 59.2256 92.3281ZM69.582 92.4717H67.1143V99H65.9932V92.4717H63.5596V91.5078H69.582V92.4717ZM73.8682 91.3848C74.7614 91.3848 75.4245 91.5853 75.8574 91.9863C76.2904 92.3874 76.5068 93.0277 76.5068 93.9072V99H75.6797L75.4609 97.8926H75.4062C75.1966 98.166 74.9779 98.3962 74.75 98.583C74.5221 98.7653 74.2578 98.9043 73.957 99C73.6608 99.0911 73.2962 99.1367 72.8633 99.1367C72.4076 99.1367 72.002 99.057 71.6465 98.8975C71.2956 98.738 71.0176 98.4964 70.8125 98.1729C70.612 97.8493 70.5117 97.4391 70.5117 96.9424C70.5117 96.195 70.8079 95.6208 71.4004 95.2197C71.9928 94.8187 72.8952 94.5999 74.1074 94.5635L75.3994 94.5088V94.0508C75.3994 93.4036 75.2604 92.9502 74.9824 92.6904C74.7044 92.4307 74.3125 92.3008 73.8066 92.3008C73.4147 92.3008 73.041 92.3577 72.6855 92.4717C72.3301 92.5856 71.9928 92.7201 71.6738 92.875L71.3252 92.0137C71.6624 91.8405 72.0498 91.6924 72.4873 91.5693C72.9248 91.4463 73.3851 91.3848 73.8682 91.3848ZM75.3857 95.3086L74.2441 95.3564C73.3099 95.3929 72.6514 95.5456 72.2686 95.8145C71.8857 96.0833 71.6943 96.4639 71.6943 96.9561C71.6943 97.3844 71.8242 97.7012 72.084 97.9062C72.3438 98.1113 72.6878 98.2139 73.1162 98.2139C73.7816 98.2139 74.3262 98.0293 74.75 97.6602C75.1738 97.291 75.3857 96.7373 75.3857 95.999V95.3086ZM88.5244 99H81.9756V98.0498L84.6484 95.3359C85.1452 94.8346 85.5622 94.388 85.8994 93.9961C86.2412 93.6042 86.501 93.2191 86.6787 92.8408C86.8564 92.458 86.9453 92.0387 86.9453 91.583C86.9453 91.0179 86.7767 90.5872 86.4395 90.291C86.1068 89.9902 85.667 89.8398 85.1201 89.8398C84.6416 89.8398 84.2178 89.9219 83.8486 90.0859C83.4795 90.25 83.1012 90.4824 82.7139 90.7832L82.1055 90.0176C82.3698 89.7943 82.6569 89.596 82.9668 89.4229C83.2812 89.2497 83.6162 89.113 83.9717 89.0127C84.3317 88.9124 84.7145 88.8623 85.1201 88.8623C85.7354 88.8623 86.2663 88.9694 86.7129 89.1836C87.1595 89.3978 87.5036 89.7031 87.7451 90.0996C87.9912 90.4961 88.1143 90.9678 88.1143 91.5146C88.1143 92.0433 88.0094 92.5355 87.7998 92.9912C87.5902 93.4424 87.2962 93.8913 86.918 94.3379C86.5397 94.7799 86.0977 95.2493 85.5918 95.7461L83.418 97.9131V97.9609H88.5244V99ZM96.5908 93.9893C96.5908 94.8005 96.5293 95.5251 96.4062 96.1631C96.2832 96.8011 96.0895 97.3411 95.8252 97.7832C95.5609 98.2253 95.2191 98.5625 94.7998 98.7949C94.3805 99.0228 93.877 99.1367 93.2891 99.1367C92.5462 99.1367 91.931 98.9339 91.4434 98.5283C90.9603 98.1227 90.598 97.5371 90.3564 96.7715C90.1195 96.0013 90.001 95.0739 90.001 93.9893C90.001 92.9229 90.1081 92.0068 90.3223 91.2412C90.541 90.471 90.8919 89.8809 91.375 89.4707C91.8581 89.056 92.4961 88.8486 93.2891 88.8486C94.041 88.8486 94.6608 89.0537 95.1484 89.4639C95.6361 89.8695 95.9984 90.4574 96.2354 91.2275C96.4723 91.9932 96.5908 92.9137 96.5908 93.9893ZM91.1426 93.9893C91.1426 94.9189 91.2132 95.6937 91.3545 96.3135C91.4958 96.9333 91.7236 97.3981 92.0381 97.708C92.3571 98.0133 92.7741 98.166 93.2891 98.166C93.804 98.166 94.2188 98.0133 94.5332 97.708C94.8522 97.4027 95.0824 96.9401 95.2236 96.3203C95.3695 95.7005 95.4424 94.9235 95.4424 93.9893C95.4424 93.0732 95.3717 92.3076 95.2305 91.6924C95.0892 91.0726 94.8613 90.6077 94.5469 90.2979C94.2324 89.9834 93.8132 89.8262 93.2891 89.8262C92.765 89.8262 92.3457 89.9834 92.0312 90.2979C91.7168 90.6077 91.4889 91.0726 91.3477 91.6924C91.2109 92.3076 91.1426 93.0732 91.1426 93.9893ZM104.603 93.9893C104.603 94.8005 104.541 95.5251 104.418 96.1631C104.295 96.8011 104.101 97.3411 103.837 97.7832C103.573 98.2253 103.231 98.5625 102.812 98.7949C102.392 99.0228 101.889 99.1367 101.301 99.1367C100.558 99.1367 99.9427 98.9339 99.4551 98.5283C98.972 98.1227 98.6097 97.5371 98.3682 96.7715C98.1312 96.0013 98.0127 95.0739 98.0127 93.9893C98.0127 92.9229 98.1198 92.0068 98.334 91.2412C98.5527 90.471 98.9036 89.8809 99.3867 89.4707C99.8698 89.056 100.508 88.8486 101.301 88.8486C102.053 88.8486 102.673 89.0537 103.16 89.4639C103.648 89.8695 104.01 90.4574 104.247 91.2275C104.484 91.9932 104.603 92.9137 104.603 93.9893ZM99.1543 93.9893C99.1543 94.9189 99.2249 95.6937 99.3662 96.3135C99.5075 96.9333 99.7354 97.3981 100.05 97.708C100.369 98.0133 100.786 98.166 101.301 98.166C101.816 98.166 102.23 98.0133 102.545 97.708C102.864 97.4027 103.094 96.9401 103.235 96.3203C103.381 95.7005 103.454 94.9235 103.454 93.9893C103.454 93.0732 103.383 92.3076 103.242 91.6924C103.101 91.0726 102.873 90.6077 102.559 90.2979C102.244 89.9834 101.825 89.8262 101.301 89.8262C100.777 89.8262 100.357 89.9834 100.043 90.2979C99.7285 90.6077 99.5007 91.0726 99.3594 91.6924C99.2227 92.3076 99.1543 93.0732 99.1543 93.9893ZM112.614 93.9893C112.614 94.8005 112.553 95.5251 112.43 96.1631C112.307 96.8011 112.113 97.3411 111.849 97.7832C111.584 98.2253 111.243 98.5625 110.823 98.7949C110.404 99.0228 109.9 99.1367 109.312 99.1367C108.57 99.1367 107.954 98.9339 107.467 98.5283C106.984 98.1227 106.621 97.5371 106.38 96.7715C106.143 96.0013 106.024 95.0739 106.024 93.9893C106.024 92.9229 106.132 92.0068 106.346 91.2412C106.564 90.471 106.915 89.8809 107.398 89.4707C107.882 89.056 108.52 88.8486 109.312 88.8486C110.064 88.8486 110.684 89.0537 111.172 89.4639C111.66 89.8695 112.022 90.4574 112.259 91.2275C112.496 91.9932 112.614 92.9137 112.614 93.9893ZM107.166 93.9893C107.166 94.9189 107.237 95.6937 107.378 96.3135C107.519 96.9333 107.747 97.3981 108.062 97.708C108.381 98.0133 108.798 98.166 109.312 98.166C109.827 98.166 110.242 98.0133 110.557 97.708C110.876 97.4027 111.106 96.9401 111.247 96.3203C111.393 95.7005 111.466 94.9235 111.466 93.9893C111.466 93.0732 111.395 92.3076 111.254 91.6924C111.113 91.0726 110.885 90.6077 110.57 90.2979C110.256 89.9834 109.837 89.8262 109.312 89.8262C108.788 89.8262 108.369 89.9834 108.055 90.2979C107.74 90.6077 107.512 91.0726 107.371 91.6924C107.234 92.3076 107.166 93.0732 107.166 93.9893ZM122.711 91.5078V92.4717H119.307V99H118.165V91.5078H122.711ZM124.037 98.2891C124.037 97.9701 124.115 97.7445 124.27 97.6123C124.424 97.4756 124.614 97.4072 124.837 97.4072C125.069 97.4072 125.265 97.4756 125.425 97.6123C125.584 97.7445 125.664 97.9701 125.664 98.2891C125.664 98.6035 125.584 98.8337 125.425 98.9795C125.265 99.1208 125.069 99.1914 124.837 99.1914C124.614 99.1914 124.424 99.1208 124.27 98.9795C124.115 98.8337 124.037 98.6035 124.037 98.2891Z" fill="#C0C0C0"/>
<line x1="17" y1="112.5" x2="271" y2="112.5" stroke="#4A4A4A"/>
<line x1="17" y1="51.5" x2="271" y2="51.5" stroke="#4A4A4A"/>
<path d="M20.5784 140V128.578H29.0862V140H27.7737V129.75H21.9065V140H20.5784ZM39.4221 135.703C39.4221 136.406 39.331 137.034 39.1487 137.586C38.9664 138.138 38.7034 138.604 38.3596 138.984C38.0159 139.365 37.5992 139.656 37.1096 139.859C36.6252 140.057 36.0758 140.156 35.4612 140.156C34.8883 140.156 34.3622 140.057 33.8831 139.859C33.4091 139.656 32.9976 139.365 32.6487 138.984C32.3049 138.604 32.0367 138.138 31.844 137.586C31.6565 137.034 31.5627 136.406 31.5627 135.703C31.5627 134.766 31.7216 133.969 32.0393 133.312C32.357 132.651 32.8101 132.148 33.3987 131.805C33.9924 131.456 34.6982 131.281 35.5159 131.281C36.2971 131.281 36.9794 131.456 37.5627 131.805C38.1513 132.154 38.607 132.659 38.9299 133.32C39.2581 133.977 39.4221 134.771 39.4221 135.703ZM32.9065 135.703C32.9065 136.391 32.9976 136.987 33.1799 137.492C33.3622 137.997 33.6435 138.388 34.0237 138.664C34.4039 138.94 34.8935 139.078 35.4924 139.078C36.0862 139.078 36.5732 138.94 36.9534 138.664C37.3388 138.388 37.6226 137.997 37.8049 137.492C37.9872 136.987 38.0784 136.391 38.0784 135.703C38.0784 135.021 37.9872 134.432 37.8049 133.938C37.6226 133.438 37.3414 133.052 36.9612 132.781C36.581 132.51 36.0888 132.375 35.4846 132.375C34.594 132.375 33.9403 132.669 33.5237 133.258C33.1122 133.846 32.9065 134.661 32.9065 135.703ZM48.0862 140H46.7659V132.523H44.1643C44.0601 133.872 43.9273 135.029 43.7659 135.992C43.6096 136.951 43.4117 137.734 43.1721 138.344C42.9377 138.948 42.6513 139.393 42.3127 139.68C41.9794 139.961 41.581 140.102 41.1174 140.102C40.9768 140.102 40.844 140.094 40.719 140.078C40.594 140.062 40.4872 140.036 40.3987 140V139.016C40.4664 139.036 40.5367 139.052 40.6096 139.062C40.6877 139.073 40.7685 139.078 40.8518 139.078C41.0862 139.078 41.2997 138.982 41.4924 138.789C41.6903 138.591 41.8674 138.294 42.0237 137.898C42.1851 137.503 42.3284 137.003 42.4534 136.398C42.5784 135.789 42.6877 135.073 42.7815 134.25C42.8805 133.422 42.9664 132.484 43.0393 131.438H48.0862V140Z" fill="white"/>
<path d="M22.7627 160L19.4062 151.154H19.3516C19.3698 151.341 19.3857 151.569 19.3994 151.838C19.4131 152.107 19.4245 152.401 19.4336 152.72C19.4427 153.034 19.4473 153.355 19.4473 153.684V160H18.3672V150.006H20.0898L23.2549 158.318H23.3027L26.5156 150.006H28.2246V160H27.0762V153.602C27.0762 153.305 27.0807 153.009 27.0898 152.713C27.099 152.412 27.1104 152.13 27.124 151.865C27.1377 151.596 27.1514 151.364 27.165 151.168H27.1104L23.7129 160H22.7627ZM29.6055 152.508H30.8223L32.4766 156.855C32.5723 157.111 32.6611 157.357 32.7432 157.594C32.8252 157.826 32.8981 158.049 32.9619 158.264C33.0257 158.478 33.0758 158.685 33.1123 158.886H33.1602C33.224 158.658 33.3151 158.359 33.4336 157.99C33.5521 157.617 33.6797 157.236 33.8164 156.849L35.3818 152.508H36.6055L33.3447 161.101C33.1715 161.561 32.9688 161.962 32.7363 162.304C32.5085 162.646 32.2305 162.908 31.9023 163.09C31.5742 163.277 31.1777 163.37 30.7129 163.37C30.4987 163.37 30.3096 163.356 30.1455 163.329C29.9814 163.306 29.8402 163.279 29.7217 163.247V162.338C29.8219 162.361 29.9427 162.381 30.084 162.399C30.2298 162.418 30.3802 162.427 30.5352 162.427C30.8177 162.427 31.0615 162.372 31.2666 162.263C31.4762 162.158 31.6562 162.003 31.8066 161.798C31.957 161.593 32.0869 161.349 32.1963 161.066L32.6064 160.014L29.6055 152.508ZM46.5791 152.508L43.4619 156.151L46.8457 160H45.5469L42.2656 156.199V160H41.2061V156.199L37.9316 160H36.6328L40.0166 156.151L36.8926 152.508H38.1436L41.2061 156.145V152.508H42.2656V156.145L45.3418 152.508H46.5791ZM51.0977 160.137C50.4232 160.137 49.8285 159.998 49.3135 159.72C48.7985 159.442 48.3975 159.018 48.1104 158.448C47.8232 157.879 47.6797 157.161 47.6797 156.295C47.6797 155.388 47.8301 154.647 48.1309 154.073C48.4362 153.494 48.8555 153.066 49.3887 152.788C49.9219 152.51 50.528 152.371 51.207 152.371C51.5807 152.371 51.9408 152.41 52.2871 152.487C52.638 152.56 52.9251 152.654 53.1484 152.768L52.8066 153.718C52.5788 153.627 52.3145 153.545 52.0137 153.472C51.7174 153.399 51.4395 153.362 51.1797 153.362C50.6602 153.362 50.2272 153.474 49.8809 153.697C49.5391 153.921 49.2816 154.249 49.1084 154.682C48.9398 155.115 48.8555 155.648 48.8555 156.281C48.8555 156.887 48.9375 157.405 49.1016 157.833C49.2702 158.261 49.5186 158.59 49.8467 158.817C50.1794 159.041 50.5941 159.152 51.0908 159.152C51.4873 159.152 51.8451 159.111 52.1641 159.029C52.4831 158.943 52.7725 158.842 53.0322 158.729V159.74C52.7816 159.868 52.5013 159.966 52.1914 160.034C51.8861 160.103 51.5215 160.137 51.0977 160.137ZM59.1777 152.508H60.4287L57.1953 156.124L60.6885 160H59.3555L55.9512 156.199V160H54.8096V152.508H55.9512V156.145L59.1777 152.508ZM68.502 156.24C68.502 156.855 68.4222 157.405 68.2627 157.888C68.1032 158.371 67.873 158.779 67.5723 159.111C67.2715 159.444 66.9069 159.699 66.4785 159.877C66.0547 160.05 65.5739 160.137 65.0361 160.137C64.5348 160.137 64.0745 160.05 63.6553 159.877C63.2406 159.699 62.8805 159.444 62.5752 159.111C62.2744 158.779 62.0397 158.371 61.8711 157.888C61.707 157.405 61.625 156.855 61.625 156.24C61.625 155.42 61.764 154.723 62.042 154.148C62.32 153.57 62.7165 153.13 63.2314 152.829C63.751 152.524 64.3685 152.371 65.084 152.371C65.7676 152.371 66.3646 152.524 66.875 152.829C67.39 153.134 67.7887 153.576 68.0713 154.155C68.3584 154.729 68.502 155.424 68.502 156.24ZM62.8008 156.24C62.8008 156.842 62.8805 157.364 63.04 157.806C63.1995 158.248 63.4456 158.59 63.7783 158.831C64.111 159.073 64.5394 159.193 65.0635 159.193C65.583 159.193 66.0091 159.073 66.3418 158.831C66.679 158.59 66.9274 158.248 67.0869 157.806C67.2464 157.364 67.3262 156.842 67.3262 156.24C67.3262 155.643 67.2464 155.128 67.0869 154.695C66.9274 154.258 66.6813 153.921 66.3486 153.684C66.016 153.447 65.5853 153.328 65.0566 153.328C64.2773 153.328 63.7054 153.586 63.3408 154.101C62.9808 154.616 62.8008 155.329 62.8008 156.24ZM71.5439 152.508V157.218C71.5439 157.309 71.5417 157.427 71.5371 157.573C71.5326 157.715 71.5257 157.867 71.5166 158.031C71.5075 158.191 71.4984 158.346 71.4893 158.496C71.4847 158.642 71.4779 158.763 71.4688 158.858L75.5566 152.508H76.9512V160H75.8916V155.406C75.8916 155.26 75.8939 155.074 75.8984 154.846C75.903 154.618 75.9098 154.395 75.9189 154.176C75.9281 153.952 75.9349 153.779 75.9395 153.656L71.8652 160H70.4639V152.508H71.5439ZM76.3906 149.425C76.3496 149.885 76.2334 150.27 76.042 150.58C75.8551 150.89 75.5794 151.125 75.2148 151.284C74.8503 151.439 74.3831 151.517 73.8135 151.517C73.2256 151.517 72.7516 151.441 72.3916 151.291C72.0361 151.136 71.7718 150.904 71.5986 150.594C71.43 150.284 71.3298 149.894 71.2979 149.425H72.3643C72.4144 149.926 72.5488 150.268 72.7676 150.45C72.9863 150.632 73.3418 150.724 73.834 150.724C74.2715 150.724 74.6156 150.628 74.8662 150.437C75.1169 150.245 75.2673 149.908 75.3174 149.425H76.3906Z" fill="#C0C0C0"/>
<line x1="17" y1="173.5" x2="271" y2="173.5" stroke="#4A4A4A"/>
<line x1="17" y1="112.5" x2="271" y2="112.5" stroke="#4A4A4A"/>
<path d="M20.594 188.578H21.8362V195.18C21.8362 195.43 21.8336 195.703 21.8284 196C21.8232 196.292 21.8153 196.578 21.8049 196.859C21.7945 197.141 21.7815 197.396 21.7659 197.625C21.7555 197.854 21.745 198.031 21.7346 198.156H21.7971L28.1565 188.578H29.6174V200H28.3752V193.477C28.3752 193.201 28.3805 192.909 28.3909 192.602C28.4013 192.289 28.4117 191.987 28.4221 191.695C28.4377 191.404 28.4534 191.143 28.469 190.914C28.4846 190.68 28.495 190.5 28.5002 190.375H28.4299L22.0627 200H20.594V188.578ZM34.7424 191.281C35.3831 191.281 35.9377 191.37 36.4065 191.547C36.8752 191.719 37.2372 191.971 37.4924 192.305C37.7476 192.638 37.8752 193.044 37.8752 193.523C37.8752 194.039 37.7346 194.451 37.4534 194.758C37.1721 195.065 36.7841 195.286 36.2893 195.422V195.484C36.6383 195.578 36.9534 195.714 37.2346 195.891C37.5211 196.062 37.7476 196.292 37.9143 196.578C38.0862 196.859 38.1721 197.211 38.1721 197.633C38.1721 198.112 38.0419 198.544 37.7815 198.93C37.5211 199.31 37.1252 199.609 36.594 199.828C36.0627 200.047 35.3909 200.156 34.5784 200.156C34.1773 200.156 33.7971 200.133 33.4377 200.086C33.0784 200.044 32.7528 199.982 32.4612 199.898C32.1695 199.815 31.9143 199.716 31.6956 199.602V198.422C32.0601 198.599 32.4872 198.755 32.9768 198.891C33.4664 199.026 33.995 199.094 34.5627 199.094C35.0002 199.094 35.3935 199.044 35.7424 198.945C36.0914 198.841 36.3674 198.677 36.5706 198.453C36.7789 198.224 36.8831 197.924 36.8831 197.555C36.8831 197.216 36.7919 196.938 36.6096 196.719C36.4273 196.495 36.1539 196.331 35.7893 196.227C35.4299 196.117 34.9742 196.062 34.4221 196.062H33.2737V195H34.219C34.9534 195 35.5393 194.896 35.9768 194.688C36.4143 194.479 36.6331 194.128 36.6331 193.633C36.6331 193.206 36.4638 192.888 36.1252 192.68C35.7867 192.466 35.3023 192.359 34.6721 192.359C34.2034 192.359 33.7893 192.409 33.4299 192.508C33.0706 192.602 32.6825 192.737 32.2659 192.914L31.8049 191.875C32.2528 191.677 32.7216 191.529 33.2112 191.43C33.7008 191.331 34.2112 191.281 34.7424 191.281ZM49.3127 191.438V200H48.1409V194.422C48.1409 194.193 48.1461 193.961 48.1565 193.727C48.1721 193.487 48.1903 193.247 48.2112 193.008H48.1643L45.3206 200H44.219L41.4456 193.008H41.3987C41.4143 193.247 41.4247 193.487 41.4299 193.727C41.4403 193.961 41.4456 194.208 41.4456 194.469V200H40.2659V191.438H42.0081L44.7737 198.438L47.5784 191.438H49.3127ZM55.3049 191.281C56.0341 191.281 56.6591 191.443 57.1799 191.766C57.7008 192.089 58.0992 192.542 58.3752 193.125C58.6513 193.703 58.7893 194.38 58.7893 195.156V195.961H52.8752C52.8909 196.966 53.1409 197.732 53.6252 198.258C54.1096 198.784 54.7919 199.047 55.6721 199.047C56.2138 199.047 56.693 198.997 57.1096 198.898C57.5263 198.799 57.9586 198.654 58.4065 198.461V199.602C57.9742 199.794 57.5445 199.935 57.1174 200.023C56.6956 200.112 56.1956 200.156 55.6174 200.156C54.7945 200.156 54.0758 199.99 53.4612 199.656C52.8518 199.318 52.3778 198.823 52.0393 198.172C51.7008 197.521 51.5315 196.724 51.5315 195.781C51.5315 194.859 51.6851 194.062 51.9924 193.391C52.3049 192.714 52.7424 192.193 53.3049 191.828C53.8726 191.464 54.5393 191.281 55.3049 191.281ZM55.2893 192.344C54.5966 192.344 54.0445 192.57 53.6331 193.023C53.2216 193.477 52.9768 194.109 52.8987 194.922H57.4299C57.4247 194.411 57.344 193.964 57.1877 193.578C57.0367 193.188 56.8049 192.885 56.4924 192.672C56.1799 192.453 55.7789 192.344 55.2893 192.344ZM62.2971 191.438V195.031H67.0706V191.438H68.3674V200H67.0706V196.133H62.2971V200H60.9924V191.438H62.2971ZM72.3518 191.438V196.82C72.3518 196.924 72.3492 197.06 72.344 197.227C72.3388 197.388 72.331 197.562 72.3206 197.75C72.3101 197.932 72.2997 198.109 72.2893 198.281C72.2841 198.448 72.2763 198.586 72.2659 198.695L76.9377 191.438H78.5315V200H77.3206V194.75C77.3206 194.583 77.3232 194.37 77.3284 194.109C77.3336 193.849 77.3414 193.594 77.3518 193.344C77.3622 193.089 77.37 192.891 77.3752 192.75L72.719 200H71.1174V191.438H72.3518ZM87.1252 192.539H84.3049V200H83.0237V192.539H80.2424V191.438H87.1252V192.539ZM90.1252 194.969H92.7502C93.4794 194.969 94.0862 195.06 94.5706 195.242C95.0549 195.424 95.4169 195.695 95.6565 196.055C95.9013 196.414 96.0237 196.859 96.0237 197.391C96.0237 197.922 95.9039 198.383 95.6643 198.773C95.4299 199.164 95.0653 199.466 94.5706 199.68C94.081 199.893 93.4482 200 92.6721 200H88.8206V191.438H90.1252V194.969ZM94.719 197.453C94.719 196.927 94.5315 196.562 94.1565 196.359C93.7867 196.151 93.2685 196.047 92.6018 196.047H90.1252V198.945H92.6096C93.2346 198.945 93.7424 198.831 94.1331 198.602C94.5237 198.367 94.719 197.984 94.719 197.453ZM108.25 192.539H105.43V200H104.149V192.539H101.367V191.438H108.25V192.539ZM113.242 191.281C113.972 191.281 114.597 191.443 115.117 191.766C115.638 192.089 116.037 192.542 116.313 193.125C116.589 193.703 116.727 194.38 116.727 195.156V195.961H110.813C110.828 196.966 111.078 197.732 111.563 198.258C112.047 198.784 112.729 199.047 113.61 199.047C114.151 199.047 114.63 198.997 115.047 198.898C115.464 198.799 115.896 198.654 116.344 198.461V199.602C115.912 199.794 115.482 199.935 115.055 200.023C114.633 200.112 114.133 200.156 113.555 200.156C112.732 200.156 112.013 199.99 111.399 199.656C110.789 199.318 110.315 198.823 109.977 198.172C109.638 197.521 109.469 196.724 109.469 195.781C109.469 194.859 109.623 194.062 109.93 193.391C110.242 192.714 110.68 192.193 111.242 191.828C111.81 191.464 112.477 191.281 113.242 191.281ZM113.227 192.344C112.534 192.344 111.982 192.57 111.571 193.023C111.159 193.477 110.914 194.109 110.836 194.922H115.367C115.362 194.411 115.281 193.964 115.125 193.578C114.974 193.188 114.742 192.885 114.43 192.672C114.117 192.453 113.716 192.344 113.227 192.344ZM125.352 200H124.031V192.523H121.43C121.326 193.872 121.193 195.029 121.031 195.992C120.875 196.951 120.677 197.734 120.438 198.344C120.203 198.948 119.917 199.393 119.578 199.68C119.245 199.961 118.847 200.102 118.383 200.102C118.242 200.102 118.11 200.094 117.985 200.078C117.86 200.062 117.753 200.036 117.664 200V199.016C117.732 199.036 117.802 199.052 117.875 199.062C117.953 199.073 118.034 199.078 118.117 199.078C118.352 199.078 118.565 198.982 118.758 198.789C118.956 198.591 119.133 198.294 119.289 197.898C119.451 197.503 119.594 197.003 119.719 196.398C119.844 195.789 119.953 195.073 120.047 194.25C120.146 193.422 120.232 192.484 120.305 191.438H125.352V200ZM131.383 191.281C132.112 191.281 132.737 191.443 133.258 191.766C133.779 192.089 134.177 192.542 134.453 193.125C134.729 193.703 134.867 194.38 134.867 195.156V195.961H128.953C128.969 196.966 129.219 197.732 129.703 198.258C130.188 198.784 130.87 199.047 131.75 199.047C132.292 199.047 132.771 198.997 133.188 198.898C133.604 198.799 134.037 198.654 134.485 198.461V199.602C134.052 199.794 133.623 199.935 133.196 200.023C132.774 200.112 132.274 200.156 131.696 200.156C130.873 200.156 130.154 199.99 129.539 199.656C128.93 199.318 128.456 198.823 128.117 198.172C127.779 197.521 127.61 196.724 127.61 195.781C127.61 194.859 127.763 194.062 128.071 193.391C128.383 192.714 128.821 192.193 129.383 191.828C129.951 191.464 130.617 191.281 131.383 191.281ZM131.367 192.344C130.675 192.344 130.123 192.57 129.711 193.023C129.3 193.477 129.055 194.109 128.977 194.922H133.508C133.503 194.411 133.422 193.964 133.266 193.578C133.115 193.188 132.883 192.885 132.571 192.672C132.258 192.453 131.857 192.344 131.367 192.344ZM142.047 187.844V191.312C142.896 191.385 143.636 191.607 144.266 191.977C144.896 192.341 145.386 192.839 145.735 193.469C146.084 194.099 146.258 194.849 146.258 195.719C146.258 196.573 146.089 197.318 145.75 197.953C145.417 198.589 144.935 199.091 144.305 199.461C143.68 199.831 142.927 200.052 142.047 200.125V203.844H140.781V200.125C139.933 200.062 139.193 199.849 138.563 199.484C137.938 199.115 137.451 198.612 137.102 197.977C136.753 197.341 136.578 196.589 136.578 195.719C136.578 194.849 136.745 194.099 137.078 193.469C137.417 192.833 137.901 192.333 138.531 191.969C139.162 191.599 139.925 191.38 140.821 191.312V187.844H142.047ZM140.821 192.391C140.159 192.448 139.615 192.615 139.188 192.891C138.761 193.167 138.443 193.542 138.235 194.016C138.031 194.49 137.93 195.057 137.93 195.719C137.93 196.38 138.034 196.951 138.242 197.43C138.451 197.904 138.768 198.279 139.196 198.555C139.623 198.831 140.164 199 140.821 199.062V192.391ZM142.047 192.406V199.062C142.703 198.995 143.242 198.82 143.664 198.539C144.091 198.258 144.406 197.88 144.61 197.406C144.818 196.932 144.922 196.37 144.922 195.719C144.922 194.729 144.685 193.956 144.211 193.398C143.737 192.836 143.016 192.505 142.047 192.406ZM155.906 195.703C155.906 196.406 155.815 197.034 155.633 197.586C155.451 198.138 155.188 198.604 154.844 198.984C154.5 199.365 154.084 199.656 153.594 199.859C153.11 200.057 152.56 200.156 151.946 200.156C151.373 200.156 150.847 200.057 150.367 199.859C149.893 199.656 149.482 199.365 149.133 198.984C148.789 198.604 148.521 198.138 148.328 197.586C148.141 197.034 148.047 196.406 148.047 195.703C148.047 194.766 148.206 193.969 148.524 193.312C148.841 192.651 149.295 192.148 149.883 191.805C150.477 191.456 151.183 191.281 152 191.281C152.781 191.281 153.464 191.456 154.047 191.805C154.636 192.154 155.091 192.659 155.414 193.32C155.742 193.977 155.906 194.771 155.906 195.703ZM149.391 195.703C149.391 196.391 149.482 196.987 149.664 197.492C149.847 197.997 150.128 198.388 150.508 198.664C150.888 198.94 151.378 199.078 151.977 199.078C152.571 199.078 153.058 198.94 153.438 198.664C153.823 198.388 154.107 197.997 154.289 197.492C154.472 196.987 154.563 196.391 154.563 195.703C154.563 195.021 154.472 194.432 154.289 193.938C154.107 193.438 153.826 193.052 153.446 192.781C153.065 192.51 152.573 192.375 151.969 192.375C151.078 192.375 150.425 192.669 150.008 193.258C149.597 193.846 149.391 194.661 149.391 195.703ZM159.453 191.438V195.031H164.227V191.438H165.524V200H164.227V196.133H159.453V200H158.149V191.438H159.453Z" fill="white"/>
<path d="M20.9922 209.862C21.571 209.862 22.0837 209.953 22.5303 210.136C22.9769 210.318 23.3255 210.587 23.5762 210.942C23.8314 211.293 23.959 211.726 23.959 212.241C23.959 212.647 23.8701 213.002 23.6924 213.308C23.5192 213.608 23.2845 213.873 22.9883 214.101C22.6921 214.324 22.3639 214.524 22.0039 214.702C22.4323 214.898 22.8174 215.119 23.1592 215.365C23.5055 215.611 23.779 215.901 23.9795 216.233C24.18 216.566 24.2803 216.96 24.2803 217.416C24.2803 217.977 24.1436 218.462 23.8701 218.872C23.6012 219.278 23.223 219.59 22.7354 219.809C22.2477 220.027 21.6758 220.137 21.0195 220.137C20.3132 220.137 19.7116 220.032 19.2148 219.822C18.7227 219.608 18.3467 219.303 18.0869 218.906C17.8317 218.505 17.7041 218.024 17.7041 217.464C17.7041 217.004 17.8021 216.605 17.998 216.268C18.194 215.926 18.4538 215.632 18.7773 215.386C19.1009 215.14 19.4541 214.932 19.8369 214.764C19.5042 214.581 19.1989 214.374 18.9209 214.142C18.6475 213.909 18.4287 213.638 18.2646 213.328C18.1051 213.014 18.0254 212.649 18.0254 212.234C18.0254 211.729 18.153 211.3 18.4082 210.949C18.668 210.594 19.0212 210.325 19.4678 210.143C19.9189 209.956 20.4271 209.862 20.9922 209.862ZM18.8184 217.471C18.8184 217.981 18.9984 218.403 19.3584 218.735C19.7184 219.063 20.263 219.228 20.9922 219.228C21.6849 219.228 22.2204 219.063 22.5986 218.735C22.9769 218.403 23.166 217.967 23.166 217.43C23.166 217.097 23.0794 216.805 22.9062 216.555C22.7331 216.299 22.487 216.072 22.168 215.871C21.849 215.671 21.473 215.488 21.04 215.324L20.7939 215.235C20.3747 215.409 20.0169 215.602 19.7207 215.816C19.429 216.026 19.2057 216.265 19.0508 216.534C18.8958 216.803 18.8184 217.115 18.8184 217.471ZM20.9785 210.792C20.4408 210.792 20.001 210.922 19.6592 211.182C19.3174 211.437 19.1465 211.806 19.1465 212.289C19.1465 212.635 19.2285 212.929 19.3926 213.171C19.5612 213.408 19.7891 213.613 20.0762 213.786C20.3633 213.955 20.6846 214.112 21.04 214.258C21.3864 214.112 21.694 213.952 21.9629 213.779C22.2318 213.602 22.4437 213.392 22.5986 213.15C22.7536 212.909 22.8311 212.619 22.8311 212.282C22.8311 211.799 22.6602 211.43 22.3184 211.175C21.9811 210.92 21.5345 210.792 20.9785 210.792ZM35.9014 214.265C35.9014 214.871 35.8581 215.461 35.7715 216.035C35.6895 216.609 35.5459 217.145 35.3408 217.642C35.1403 218.138 34.8669 218.574 34.5205 218.947C34.1742 219.321 33.7389 219.615 33.2148 219.829C32.6953 220.039 32.0732 220.144 31.3486 220.144C31.1527 220.144 30.9294 220.13 30.6787 220.103C30.4281 220.08 30.223 220.046 30.0635 220V219.016C30.2321 219.075 30.4303 219.123 30.6582 219.159C30.8861 219.191 31.1094 219.207 31.3281 219.207C32.1803 219.207 32.8503 219.025 33.3379 218.66C33.8255 218.291 34.1764 217.792 34.3906 217.163C34.6048 216.53 34.7256 215.819 34.7529 215.03H34.6709C34.5342 215.249 34.3542 215.452 34.1309 215.639C33.9121 215.821 33.6455 215.969 33.3311 216.083C33.0166 216.192 32.6497 216.247 32.2305 216.247C31.6517 216.247 31.1458 216.129 30.7129 215.892C30.2845 215.655 29.9495 215.311 29.708 214.859C29.471 214.408 29.3525 213.864 29.3525 213.226C29.3525 212.537 29.4824 211.943 29.7422 211.441C30.0065 210.936 30.3757 210.546 30.8496 210.272C31.3236 209.999 31.8818 209.862 32.5244 209.862C33.0166 209.862 33.4678 209.956 33.8779 210.143C34.2881 210.329 34.6436 210.61 34.9443 210.983C35.2497 211.353 35.4844 211.811 35.6484 212.357C35.8171 212.904 35.9014 213.54 35.9014 214.265ZM32.5244 210.826C31.9183 210.826 31.4261 211.024 31.0479 211.421C30.6742 211.817 30.4873 212.414 30.4873 213.212C30.4873 213.873 30.6491 214.395 30.9727 214.777C31.2962 215.16 31.7952 215.352 32.4697 215.352C32.9346 215.352 33.3356 215.258 33.6729 215.071C34.0146 214.884 34.2767 214.647 34.459 214.36C34.6458 214.073 34.7393 213.779 34.7393 213.479C34.7393 213.178 34.6937 212.872 34.6025 212.562C34.516 212.253 34.3815 211.968 34.1992 211.708C34.0169 211.444 33.7868 211.232 33.5088 211.072C33.2308 210.908 32.9027 210.826 32.5244 210.826ZM43.8994 220H37.3506V219.05L40.0234 216.336C40.5202 215.835 40.9372 215.388 41.2744 214.996C41.6162 214.604 41.876 214.219 42.0537 213.841C42.2314 213.458 42.3203 213.039 42.3203 212.583C42.3203 212.018 42.1517 211.587 41.8145 211.291C41.4818 210.99 41.042 210.84 40.4951 210.84C40.0166 210.84 39.5928 210.922 39.2236 211.086C38.8545 211.25 38.4762 211.482 38.0889 211.783L37.4805 211.018C37.7448 210.794 38.0319 210.596 38.3418 210.423C38.6562 210.25 38.9912 210.113 39.3467 210.013C39.7067 209.912 40.0895 209.862 40.4951 209.862C41.1104 209.862 41.6413 209.969 42.0879 210.184C42.5345 210.398 42.8786 210.703 43.1201 211.1C43.3662 211.496 43.4893 211.968 43.4893 212.515C43.4893 213.043 43.3844 213.535 43.1748 213.991C42.9652 214.442 42.6712 214.891 42.293 215.338C41.9147 215.78 41.4727 216.249 40.9668 216.746L38.793 218.913V218.961H43.8994V220ZM49.5869 220H48.4795V212.918C48.4795 212.649 48.4795 212.419 48.4795 212.228C48.484 212.032 48.4886 211.854 48.4932 211.694C48.5023 211.53 48.5137 211.364 48.5273 211.195C48.3861 211.341 48.2539 211.466 48.1309 211.571C48.0078 211.672 47.8551 211.797 47.6729 211.947L46.5312 212.863L45.9365 212.091L48.6436 210.006H49.5869V220ZM58.3027 220L62.4043 211.045H56.9561V210.006H63.6211V210.881L59.5469 220H58.3027ZM71.2021 212.337C71.2021 212.784 71.1156 213.171 70.9424 213.499C70.7692 213.827 70.5277 214.096 70.2178 214.306C69.9079 214.511 69.5433 214.654 69.124 214.736V214.791C69.917 214.891 70.5117 215.146 70.9082 215.557C71.3092 215.967 71.5098 216.505 71.5098 217.17C71.5098 217.749 71.373 218.261 71.0996 218.708C70.8307 219.155 70.416 219.506 69.8555 219.761C69.2995 220.011 68.5863 220.137 67.7158 220.137C67.1872 220.137 66.6973 220.093 66.2461 220.007C65.7995 219.925 65.3711 219.786 64.9609 219.59V218.523C65.3757 218.729 65.8268 218.89 66.3145 219.009C66.8021 219.123 67.2738 219.18 67.7295 219.18C68.641 219.18 69.2995 219 69.7051 218.64C70.1107 218.275 70.3135 217.778 70.3135 217.149C70.3135 216.716 70.1995 216.368 69.9717 216.104C69.7484 215.835 69.4248 215.639 69.001 215.516C68.5817 215.388 68.0758 215.324 67.4834 215.324H66.4854V214.354H67.4902C68.0326 214.354 68.4928 214.274 68.8711 214.114C69.2493 213.955 69.5365 213.731 69.7324 213.444C69.9329 213.153 70.0332 212.809 70.0332 212.412C70.0332 211.906 69.8646 211.517 69.5273 211.243C69.1901 210.965 68.7321 210.826 68.1533 210.826C67.7979 210.826 67.4743 210.863 67.1826 210.936C66.891 211.008 66.6175 211.109 66.3623 211.236C66.1071 211.364 65.8519 211.512 65.5967 211.681L65.0225 210.901C65.387 210.619 65.8314 210.375 66.3555 210.17C66.8796 209.965 67.4743 209.862 68.1396 209.862C69.1605 209.862 69.9261 210.095 70.4365 210.56C70.9469 211.024 71.2021 211.617 71.2021 212.337ZM73.1367 215.728C73.1367 215.126 73.1777 214.538 73.2598 213.964C73.3464 213.39 73.4899 212.856 73.6904 212.364C73.891 211.868 74.1644 211.432 74.5107 211.059C74.8571 210.685 75.2878 210.393 75.8027 210.184C76.3223 209.969 76.9443 209.862 77.6689 209.862C77.874 209.862 78.0951 209.874 78.332 209.896C78.569 209.915 78.765 209.947 78.9199 209.992V210.97C78.7513 210.91 78.5576 210.867 78.3389 210.84C78.1247 210.812 77.9082 210.799 77.6895 210.799C76.8418 210.799 76.1742 210.983 75.6865 211.353C75.2035 211.722 74.8548 212.223 74.6406 212.856C74.4264 213.485 74.3034 214.194 74.2715 214.982H74.3467C74.488 214.755 74.668 214.549 74.8867 214.367C75.1055 214.18 75.3698 214.032 75.6797 213.923C75.9941 213.813 76.3587 213.759 76.7734 213.759C77.3568 213.759 77.8649 213.877 78.2979 214.114C78.7354 214.351 79.0726 214.695 79.3096 215.146C79.5511 215.598 79.6719 216.145 79.6719 216.787C79.6719 217.475 79.5443 218.07 79.2891 218.571C79.0339 219.073 78.6693 219.46 78.1953 219.733C77.7259 220.002 77.1654 220.137 76.5137 220.137C76.026 220.137 75.5771 220.043 75.167 219.856C74.7568 219.67 74.3991 219.392 74.0938 219.022C73.793 218.653 73.5583 218.195 73.3896 217.648C73.221 217.097 73.1367 216.457 73.1367 215.728ZM76.5 219.18C77.1198 219.18 77.6165 218.981 77.9902 218.585C78.3639 218.188 78.5508 217.589 78.5508 216.787C78.5508 216.131 78.3844 215.611 78.0518 215.229C77.7191 214.846 77.2178 214.654 76.5479 214.654C76.0921 214.654 75.6956 214.75 75.3584 214.941C75.0212 215.128 74.7591 215.365 74.5723 215.652C74.3854 215.939 74.292 216.231 74.292 216.527C74.292 216.828 74.3353 217.133 74.4219 217.443C74.513 217.753 74.6497 218.04 74.832 218.305C75.0143 218.569 75.2445 218.781 75.5225 218.94C75.8005 219.1 76.1263 219.18 76.5 219.18ZM84.7852 215.728C84.7852 215.126 84.8262 214.538 84.9082 213.964C84.9948 213.39 85.1383 212.856 85.3389 212.364C85.5394 211.868 85.8128 211.432 86.1592 211.059C86.5055 210.685 86.9362 210.393 87.4512 210.184C87.9707 209.969 88.5928 209.862 89.3174 209.862C89.5225 209.862 89.7435 209.874 89.9805 209.896C90.2174 209.915 90.4134 209.947 90.5684 209.992V210.97C90.3997 210.91 90.2061 210.867 89.9873 210.84C89.7731 210.812 89.5566 210.799 89.3379 210.799C88.4902 210.799 87.8226 210.983 87.335 211.353C86.8519 211.722 86.5033 212.223 86.2891 212.856C86.0749 213.485 85.9518 214.194 85.9199 214.982H85.9951C86.1364 214.755 86.3164 214.549 86.5352 214.367C86.7539 214.18 87.0182 214.032 87.3281 213.923C87.6426 213.813 88.0072 213.759 88.4219 213.759C89.0052 213.759 89.5133 213.877 89.9463 214.114C90.3838 214.351 90.721 214.695 90.958 215.146C91.1995 215.598 91.3203 216.145 91.3203 216.787C91.3203 217.475 91.1927 218.07 90.9375 218.571C90.6823 219.073 90.3177 219.46 89.8438 219.733C89.3743 220.002 88.8138 220.137 88.1621 220.137C87.6745 220.137 87.2256 220.043 86.8154 219.856C86.4053 219.67 86.0475 219.392 85.7422 219.022C85.4414 218.653 85.2067 218.195 85.0381 217.648C84.8695 217.097 84.7852 216.457 84.7852 215.728ZM88.1484 219.18C88.7682 219.18 89.265 218.981 89.6387 218.585C90.0124 218.188 90.1992 217.589 90.1992 216.787C90.1992 216.131 90.0329 215.611 89.7002 215.229C89.3675 214.846 88.8662 214.654 88.1963 214.654C87.7406 214.654 87.3441 214.75 87.0068 214.941C86.6696 215.128 86.4076 215.365 86.2207 215.652C86.0339 215.939 85.9404 216.231 85.9404 216.527C85.9404 216.828 85.9837 217.133 86.0703 217.443C86.1615 217.753 86.2982 218.04 86.4805 218.305C86.6628 218.569 86.8929 218.781 87.1709 218.94C87.4489 219.1 87.7747 219.18 88.1484 219.18ZM95.8525 213.889C96.5316 213.889 97.1217 214.005 97.623 214.237C98.1243 214.465 98.5117 214.798 98.7852 215.235C99.0632 215.673 99.2021 216.204 99.2021 216.828C99.2021 217.512 99.054 218.102 98.7578 218.599C98.4616 219.091 98.0355 219.471 97.4795 219.74C96.9235 220.005 96.2581 220.137 95.4834 220.137C94.9639 220.137 94.4808 220.091 94.0342 220C93.5876 219.909 93.2116 219.772 92.9062 219.59V218.51C93.2389 218.71 93.6423 218.87 94.1162 218.988C94.5902 219.107 95.0505 219.166 95.4971 219.166C96.0029 219.166 96.445 219.086 96.8232 218.927C97.2061 218.763 97.5023 218.517 97.7119 218.188C97.9261 217.856 98.0332 217.439 98.0332 216.938C98.0332 216.272 97.8281 215.759 97.418 215.399C97.0124 215.035 96.3698 214.853 95.4902 214.853C95.2077 214.853 94.8978 214.875 94.5605 214.921C94.2233 214.966 93.9453 215.017 93.7266 215.071L93.1523 214.695L93.5352 210.006H98.5049V211.045H94.5059L94.2529 214.06C94.4261 214.023 94.6494 213.987 94.9229 213.95C95.1963 213.909 95.5062 213.889 95.8525 213.889ZM111.391 217.683H109.894V220H108.786V217.683H103.953V216.726L108.711 209.951H109.894V216.657H111.391V217.683ZM108.786 216.657V213.39C108.786 213.139 108.788 212.913 108.793 212.713C108.798 212.508 108.804 212.319 108.813 212.146C108.823 211.968 108.829 211.799 108.834 211.64C108.843 211.48 108.85 211.323 108.854 211.168H108.8C108.713 211.35 108.613 211.544 108.499 211.749C108.39 211.95 108.278 212.13 108.164 212.289L105.081 216.657H108.786ZM118.958 214.989C118.958 215.8 118.896 216.525 118.773 217.163C118.65 217.801 118.457 218.341 118.192 218.783C117.928 219.225 117.586 219.562 117.167 219.795C116.748 220.023 116.244 220.137 115.656 220.137C114.913 220.137 114.298 219.934 113.811 219.528C113.327 219.123 112.965 218.537 112.724 217.771C112.487 217.001 112.368 216.074 112.368 214.989C112.368 213.923 112.475 213.007 112.689 212.241C112.908 211.471 113.259 210.881 113.742 210.471C114.225 210.056 114.863 209.849 115.656 209.849C116.408 209.849 117.028 210.054 117.516 210.464C118.003 210.869 118.366 211.457 118.603 212.228C118.84 212.993 118.958 213.914 118.958 214.989ZM113.51 214.989C113.51 215.919 113.58 216.694 113.722 217.313C113.863 217.933 114.091 218.398 114.405 218.708C114.724 219.013 115.141 219.166 115.656 219.166C116.171 219.166 116.586 219.013 116.9 218.708C117.219 218.403 117.45 217.94 117.591 217.32C117.737 216.701 117.81 215.924 117.81 214.989C117.81 214.073 117.739 213.308 117.598 212.692C117.456 212.073 117.229 211.608 116.914 211.298C116.6 210.983 116.18 210.826 115.656 210.826C115.132 210.826 114.713 210.983 114.398 211.298C114.084 211.608 113.856 212.073 113.715 212.692C113.578 213.308 113.51 214.073 113.51 214.989Z" fill="#C0C0C0"/>
<line x1="17" y1="233.5" x2="271" y2="233.5" stroke="#4A4A4A"/>
<line x1="17" y1="172.5" x2="271" y2="172.5" stroke="#4A4A4A"/>
<path d="M20.594 248.578H21.8362V255.18C21.8362 255.43 21.8336 255.703 21.8284 256C21.8232 256.292 21.8153 256.578 21.8049 256.859C21.7945 257.141 21.7815 257.396 21.7659 257.625C21.7555 257.854 21.745 258.031 21.7346 258.156H21.7971L28.1565 248.578H29.6174V260H28.3752V253.477C28.3752 253.201 28.3805 252.909 28.3909 252.602C28.4013 252.289 28.4117 251.987 28.4221 251.695C28.4377 251.404 28.4534 251.143 28.469 250.914C28.4846 250.68 28.495 250.5 28.5002 250.375H28.4299L22.0627 260H20.594V248.578ZM34.7424 251.281C35.3831 251.281 35.9377 251.37 36.4065 251.547C36.8752 251.719 37.2372 251.971 37.4924 252.305C37.7476 252.638 37.8752 253.044 37.8752 253.523C37.8752 254.039 37.7346 254.451 37.4534 254.758C37.1721 255.065 36.7841 255.286 36.2893 255.422V255.484C36.6383 255.578 36.9534 255.714 37.2346 255.891C37.5211 256.062 37.7476 256.292 37.9143 256.578C38.0862 256.859 38.1721 257.211 38.1721 257.633C38.1721 258.112 38.0419 258.544 37.7815 258.93C37.5211 259.31 37.1252 259.609 36.594 259.828C36.0627 260.047 35.3909 260.156 34.5784 260.156C34.1773 260.156 33.7971 260.133 33.4377 260.086C33.0784 260.044 32.7528 259.982 32.4612 259.898C32.1695 259.815 31.9143 259.716 31.6956 259.602V258.422C32.0601 258.599 32.4872 258.755 32.9768 258.891C33.4664 259.026 33.995 259.094 34.5627 259.094C35.0002 259.094 35.3935 259.044 35.7424 258.945C36.0914 258.841 36.3674 258.677 36.5706 258.453C36.7789 258.224 36.8831 257.924 36.8831 257.555C36.8831 257.216 36.7919 256.938 36.6096 256.719C36.4273 256.495 36.1539 256.331 35.7893 256.227C35.4299 256.117 34.9742 256.062 34.4221 256.062H33.2737V255H34.219C34.9534 255 35.5393 254.896 35.9768 254.688C36.4143 254.479 36.6331 254.128 36.6331 253.633C36.6331 253.206 36.4638 252.888 36.1252 252.68C35.7867 252.466 35.3023 252.359 34.6721 252.359C34.2034 252.359 33.7893 252.409 33.4299 252.508C33.0706 252.602 32.6825 252.737 32.2659 252.914L31.8049 251.875C32.2528 251.677 32.7216 251.529 33.2112 251.43C33.7008 251.331 34.2112 251.281 34.7424 251.281ZM49.3127 251.438V260H48.1409V254.422C48.1409 254.193 48.1461 253.961 48.1565 253.727C48.1721 253.487 48.1903 253.247 48.2112 253.008H48.1643L45.3206 260H44.219L41.4456 253.008H41.3987C41.4143 253.247 41.4247 253.487 41.4299 253.727C41.4403 253.961 41.4456 254.208 41.4456 254.469V260H40.2659V251.438H42.0081L44.7737 258.438L47.5784 251.438H49.3127ZM55.3049 251.281C56.0341 251.281 56.6591 251.443 57.1799 251.766C57.7008 252.089 58.0992 252.542 58.3752 253.125C58.6513 253.703 58.7893 254.38 58.7893 255.156V255.961H52.8752C52.8909 256.966 53.1409 257.732 53.6252 258.258C54.1096 258.784 54.7919 259.047 55.6721 259.047C56.2138 259.047 56.693 258.997 57.1096 258.898C57.5263 258.799 57.9586 258.654 58.4065 258.461V259.602C57.9742 259.794 57.5445 259.935 57.1174 260.023C56.6956 260.112 56.1956 260.156 55.6174 260.156C54.7945 260.156 54.0758 259.99 53.4612 259.656C52.8518 259.318 52.3778 258.823 52.0393 258.172C51.7008 257.521 51.5315 256.724 51.5315 255.781C51.5315 254.859 51.6851 254.062 51.9924 253.391C52.3049 252.714 52.7424 252.193 53.3049 251.828C53.8726 251.464 54.5393 251.281 55.3049 251.281ZM55.2893 252.344C54.5966 252.344 54.0445 252.57 53.6331 253.023C53.2216 253.477 52.9768 254.109 52.8987 254.922H57.4299C57.4247 254.411 57.344 253.964 57.1877 253.578C57.0367 253.188 56.8049 252.885 56.4924 252.672C56.1799 252.453 55.7789 252.344 55.2893 252.344ZM62.2971 251.438V255.031H67.0706V251.438H68.3674V260H67.0706V256.133H62.2971V260H60.9924V251.438H62.2971ZM72.3518 251.438V256.82C72.3518 256.924 72.3492 257.06 72.344 257.227C72.3388 257.388 72.331 257.562 72.3206 257.75C72.3101 257.932 72.2997 258.109 72.2893 258.281C72.2841 258.448 72.2763 258.586 72.2659 258.695L76.9377 251.438H78.5315V260H77.3206V254.75C77.3206 254.583 77.3232 254.37 77.3284 254.109C77.3336 253.849 77.3414 253.594 77.3518 253.344C77.3622 253.089 77.37 252.891 77.3752 252.75L72.719 260H71.1174V251.438H72.3518ZM87.1252 252.539H84.3049V260H83.0237V252.539H80.2424V251.438H87.1252V252.539ZM90.1252 254.969H92.7502C93.4794 254.969 94.0862 255.06 94.5706 255.242C95.0549 255.424 95.4169 255.695 95.6565 256.055C95.9013 256.414 96.0237 256.859 96.0237 257.391C96.0237 257.922 95.9039 258.383 95.6643 258.773C95.4299 259.164 95.0653 259.466 94.5706 259.68C94.081 259.893 93.4482 260 92.6721 260H88.8206V251.438H90.1252V254.969ZM94.719 257.453C94.719 256.927 94.5315 256.562 94.1565 256.359C93.7867 256.151 93.2685 256.047 92.6018 256.047H90.1252V258.945H92.6096C93.2346 258.945 93.7424 258.831 94.1331 258.602C94.5237 258.367 94.719 257.984 94.719 257.453ZM105.711 251.281C106.44 251.281 107.065 251.443 107.586 251.766C108.107 252.089 108.505 252.542 108.781 253.125C109.058 253.703 109.196 254.38 109.196 255.156V255.961H103.281C103.297 256.966 103.547 257.732 104.031 258.258C104.516 258.784 105.198 259.047 106.078 259.047C106.62 259.047 107.099 258.997 107.516 258.898C107.933 258.799 108.365 258.654 108.813 258.461V259.602C108.38 259.794 107.951 259.935 107.524 260.023C107.102 260.112 106.602 260.156 106.024 260.156C105.201 260.156 104.482 259.99 103.867 259.656C103.258 259.318 102.784 258.823 102.446 258.172C102.107 257.521 101.938 256.724 101.938 255.781C101.938 254.859 102.091 254.062 102.399 253.391C102.711 252.714 103.149 252.193 103.711 251.828C104.279 251.464 104.946 251.281 105.711 251.281ZM105.696 252.344C105.003 252.344 104.451 252.57 104.039 253.023C103.628 253.477 103.383 254.109 103.305 254.922H107.836C107.831 254.411 107.75 253.964 107.594 253.578C107.443 253.188 107.211 252.885 106.899 252.672C106.586 252.453 106.185 252.344 105.696 252.344ZM120.696 251.281C121.638 251.281 122.349 251.529 122.828 252.023C123.308 252.513 123.547 253.302 123.547 254.391V260H122.266V254.453C122.266 253.76 122.115 253.242 121.813 252.898C121.516 252.549 121.073 252.375 120.485 252.375C119.656 252.375 119.055 252.615 118.68 253.094C118.305 253.573 118.117 254.279 118.117 255.211V260H116.828V254.453C116.828 253.99 116.761 253.604 116.625 253.297C116.495 252.99 116.297 252.76 116.031 252.609C115.771 252.453 115.44 252.375 115.039 252.375C114.472 252.375 114.016 252.492 113.672 252.727C113.328 252.961 113.078 253.31 112.922 253.773C112.771 254.232 112.696 254.797 112.696 255.469V260H111.399V251.438H112.446L112.641 252.648H112.711C112.883 252.352 113.099 252.102 113.36 251.898C113.62 251.695 113.912 251.542 114.235 251.438C114.558 251.333 114.901 251.281 115.266 251.281C115.917 251.281 116.461 251.404 116.899 251.648C117.341 251.888 117.662 252.255 117.86 252.75H117.93C118.211 252.255 118.597 251.888 119.086 251.648C119.576 251.404 120.112 251.281 120.696 251.281ZM129.414 251.297C130.435 251.297 131.193 251.526 131.688 251.984C132.183 252.443 132.43 253.174 132.43 254.18V260H131.485L131.235 258.734H131.172C130.933 259.047 130.683 259.31 130.422 259.523C130.162 259.732 129.86 259.891 129.516 260C129.177 260.104 128.761 260.156 128.266 260.156C127.745 260.156 127.281 260.065 126.875 259.883C126.474 259.701 126.156 259.424 125.922 259.055C125.693 258.685 125.578 258.216 125.578 257.648C125.578 256.794 125.917 256.138 126.594 255.68C127.271 255.221 128.302 254.971 129.688 254.93L131.164 254.867V254.344C131.164 253.604 131.005 253.086 130.688 252.789C130.37 252.492 129.922 252.344 129.344 252.344C128.896 252.344 128.469 252.409 128.063 252.539C127.656 252.669 127.271 252.823 126.906 253L126.508 252.016C126.893 251.818 127.336 251.648 127.836 251.508C128.336 251.367 128.862 251.297 129.414 251.297ZM131.149 255.781L129.844 255.836C128.776 255.878 128.024 256.052 127.586 256.359C127.149 256.667 126.93 257.102 126.93 257.664C126.93 258.154 127.078 258.516 127.375 258.75C127.672 258.984 128.065 259.102 128.555 259.102C129.315 259.102 129.938 258.891 130.422 258.469C130.906 258.047 131.149 257.414 131.149 256.57V255.781ZM136.399 251.438V260H135.102V251.438H136.399ZM135.766 248.234C135.979 248.234 136.162 248.305 136.313 248.445C136.469 248.581 136.547 248.794 136.547 249.086C136.547 249.372 136.469 249.586 136.313 249.727C136.162 249.867 135.979 249.938 135.766 249.938C135.542 249.938 135.354 249.867 135.203 249.727C135.058 249.586 134.985 249.372 134.985 249.086C134.985 248.794 135.058 248.581 135.203 248.445C135.354 248.305 135.542 248.234 135.766 248.234ZM140.453 260H139.149V247.844H140.453V260Z" fill="white"/>
<path d="M20.999 272.385C21.8923 272.385 22.5553 272.585 22.9883 272.986C23.4212 273.387 23.6377 274.028 23.6377 274.907V280H22.8105L22.5918 278.893H22.5371C22.3275 279.166 22.1087 279.396 21.8809 279.583C21.653 279.765 21.3887 279.904 21.0879 280C20.7917 280.091 20.4271 280.137 19.9941 280.137C19.5384 280.137 19.1328 280.057 18.7773 279.897C18.4264 279.738 18.1484 279.496 17.9434 279.173C17.7428 278.849 17.6426 278.439 17.6426 277.942C17.6426 277.195 17.9388 276.621 18.5312 276.22C19.1237 275.819 20.026 275.6 21.2383 275.563L22.5303 275.509V275.051C22.5303 274.404 22.3913 273.95 22.1133 273.69C21.8353 273.431 21.4434 273.301 20.9375 273.301C20.5456 273.301 20.1719 273.358 19.8164 273.472C19.4609 273.586 19.1237 273.72 18.8047 273.875L18.4561 273.014C18.7933 272.84 19.1807 272.692 19.6182 272.569C20.0557 272.446 20.516 272.385 20.999 272.385ZM22.5166 276.309L21.375 276.356C20.4408 276.393 19.7822 276.546 19.3994 276.814C19.0166 277.083 18.8252 277.464 18.8252 277.956C18.8252 278.384 18.9551 278.701 19.2148 278.906C19.4746 279.111 19.8187 279.214 20.2471 279.214C20.9124 279.214 21.457 279.029 21.8809 278.66C22.3047 278.291 22.5166 277.737 22.5166 276.999V276.309ZM27.623 280L24.7793 272.508H25.9961L27.6436 277.04C27.7575 277.35 27.8737 277.692 27.9922 278.065C28.1107 278.439 28.1927 278.74 28.2383 278.968H28.2861C28.3408 278.74 28.432 278.439 28.5596 278.065C28.6872 277.687 28.8034 277.345 28.9082 277.04L30.5557 272.508H31.7725L28.9219 280H27.623ZM35.7783 272.385C36.6715 272.385 37.3346 272.585 37.7676 272.986C38.2005 273.387 38.417 274.028 38.417 274.907V280H37.5898L37.3711 278.893H37.3164C37.1068 279.166 36.888 279.396 36.6602 279.583C36.4323 279.765 36.168 279.904 35.8672 280C35.571 280.091 35.2064 280.137 34.7734 280.137C34.3177 280.137 33.9121 280.057 33.5566 279.897C33.2057 279.738 32.9277 279.496 32.7227 279.173C32.5221 278.849 32.4219 278.439 32.4219 277.942C32.4219 277.195 32.7181 276.621 33.3105 276.22C33.903 275.819 34.8053 275.6 36.0176 275.563L37.3096 275.509V275.051C37.3096 274.404 37.1706 273.95 36.8926 273.69C36.6146 273.431 36.2227 273.301 35.7168 273.301C35.3249 273.301 34.9512 273.358 34.5957 273.472C34.2402 273.586 33.903 273.72 33.584 273.875L33.2354 273.014C33.5726 272.84 33.96 272.692 34.3975 272.569C34.835 272.446 35.2952 272.385 35.7783 272.385ZM37.2959 276.309L36.1543 276.356C35.2201 276.393 34.5615 276.546 34.1787 276.814C33.7959 277.083 33.6045 277.464 33.6045 277.956C33.6045 278.384 33.7344 278.701 33.9941 278.906C34.2539 279.111 34.598 279.214 35.0264 279.214C35.6917 279.214 36.2363 279.029 36.6602 278.66C37.084 278.291 37.2959 277.737 37.2959 276.999V276.309ZM44.3027 272.371C45.1914 272.371 45.8636 272.59 46.3193 273.027C46.7751 273.46 47.0029 274.158 47.0029 275.119V280H45.8818V275.194C45.8818 274.57 45.7383 274.103 45.4512 273.793C45.1686 273.483 44.7334 273.328 44.1455 273.328C43.3161 273.328 42.7327 273.563 42.3955 274.032C42.0583 274.502 41.8896 275.183 41.8896 276.076V280H40.7549V272.508H41.6709L41.8418 273.588H41.9033C42.0628 273.324 42.2656 273.103 42.5117 272.925C42.7578 272.743 43.0335 272.606 43.3389 272.515C43.6442 272.419 43.9655 272.371 44.3027 272.371ZM52.0068 280.137C51.0589 280.137 50.307 279.813 49.751 279.166C49.1995 278.519 48.9238 277.557 48.9238 276.281C48.9238 274.992 49.2064 274.019 49.7715 273.362C50.3366 272.701 51.0885 272.371 52.0273 272.371C52.4238 272.371 52.7702 272.424 53.0664 272.528C53.3626 272.633 53.6178 272.774 53.832 272.952C54.0462 273.125 54.2262 273.324 54.3721 273.547H54.4541C54.4359 273.406 54.4176 273.212 54.3994 272.966C54.3812 272.72 54.3721 272.519 54.3721 272.364V269.363H55.5068V280H54.5908L54.4199 278.934H54.3721C54.2308 279.157 54.0508 279.36 53.832 279.542C53.6178 279.724 53.3604 279.87 53.0596 279.979C52.7633 280.084 52.4124 280.137 52.0068 280.137ZM52.1846 279.193C52.9867 279.193 53.554 278.965 53.8867 278.51C54.2194 278.054 54.3857 277.377 54.3857 276.479V276.274C54.3857 275.322 54.2262 274.59 53.9072 274.08C53.5928 273.57 53.0186 273.314 52.1846 273.314C51.4873 273.314 50.9655 273.583 50.6191 274.121C50.2728 274.654 50.0996 275.383 50.0996 276.309C50.0996 277.229 50.2705 277.94 50.6123 278.441C50.9587 278.943 51.4827 279.193 52.1846 279.193ZM60.7979 272.371C61.4359 272.371 61.9827 272.512 62.4385 272.795C62.8942 273.077 63.2428 273.474 63.4844 273.984C63.7259 274.49 63.8467 275.083 63.8467 275.762V276.466H58.6719C58.6855 277.345 58.9043 278.015 59.3281 278.476C59.752 278.936 60.349 279.166 61.1191 279.166C61.5931 279.166 62.0124 279.123 62.377 279.036C62.7415 278.95 63.1198 278.822 63.5117 278.653V279.651C63.1335 279.82 62.7575 279.943 62.3838 280.021C62.0146 280.098 61.5771 280.137 61.0713 280.137C60.3512 280.137 59.7223 279.991 59.1846 279.699C58.6514 279.403 58.2367 278.97 57.9404 278.4C57.6442 277.831 57.4961 277.133 57.4961 276.309C57.4961 275.502 57.6305 274.805 57.8994 274.217C58.1729 273.624 58.5557 273.169 59.0479 272.85C59.5446 272.531 60.1279 272.371 60.7979 272.371ZM60.7842 273.301C60.1781 273.301 59.695 273.499 59.335 273.896C58.9749 274.292 58.7607 274.846 58.6924 275.557H62.6572C62.6527 275.11 62.582 274.718 62.4453 274.381C62.3132 274.039 62.1104 273.775 61.8369 273.588C61.5635 273.396 61.2126 273.301 60.7842 273.301ZM68.7754 280.137C68.1009 280.137 67.5062 279.998 66.9912 279.72C66.4762 279.442 66.0752 279.018 65.7881 278.448C65.501 277.879 65.3574 277.161 65.3574 276.295C65.3574 275.388 65.5078 274.647 65.8086 274.073C66.1139 273.494 66.5332 273.066 67.0664 272.788C67.5996 272.51 68.2057 272.371 68.8848 272.371C69.2585 272.371 69.6185 272.41 69.9648 272.487C70.3158 272.56 70.6029 272.654 70.8262 272.768L70.4844 273.718C70.2565 273.627 69.9922 273.545 69.6914 273.472C69.3952 273.399 69.1172 273.362 68.8574 273.362C68.3379 273.362 67.9049 273.474 67.5586 273.697C67.2168 273.921 66.9593 274.249 66.7861 274.682C66.6175 275.115 66.5332 275.648 66.5332 276.281C66.5332 276.887 66.6152 277.405 66.7793 277.833C66.9479 278.261 67.1963 278.59 67.5244 278.817C67.8571 279.041 68.2718 279.152 68.7686 279.152C69.165 279.152 69.5228 279.111 69.8418 279.029C70.1608 278.943 70.4502 278.842 70.71 278.729V279.74C70.4593 279.868 70.179 279.966 69.8691 280.034C69.5638 280.103 69.1992 280.137 68.7754 280.137ZM78.9473 276.24C78.9473 276.855 78.8675 277.405 78.708 277.888C78.5485 278.371 78.3184 278.779 78.0176 279.111C77.7168 279.444 77.3522 279.699 76.9238 279.877C76.5 280.05 76.0192 280.137 75.4814 280.137C74.9801 280.137 74.5199 280.05 74.1006 279.877C73.6859 279.699 73.3258 279.444 73.0205 279.111C72.7197 278.779 72.485 278.371 72.3164 277.888C72.1523 277.405 72.0703 276.855 72.0703 276.24C72.0703 275.42 72.2093 274.723 72.4873 274.148C72.7653 273.57 73.1618 273.13 73.6768 272.829C74.1963 272.524 74.8138 272.371 75.5293 272.371C76.2129 272.371 76.8099 272.524 77.3203 272.829C77.8353 273.134 78.234 273.576 78.5166 274.155C78.8037 274.729 78.9473 275.424 78.9473 276.24ZM73.2461 276.24C73.2461 276.842 73.3258 277.364 73.4854 277.806C73.6449 278.248 73.891 278.59 74.2236 278.831C74.5563 279.073 74.9847 279.193 75.5088 279.193C76.0283 279.193 76.4544 279.073 76.7871 278.831C77.1243 278.59 77.3727 278.248 77.5322 277.806C77.6917 277.364 77.7715 276.842 77.7715 276.24C77.7715 275.643 77.6917 275.128 77.5322 274.695C77.3727 274.258 77.1266 273.921 76.7939 273.684C76.4613 273.447 76.0306 273.328 75.502 273.328C74.7227 273.328 74.1507 273.586 73.7861 274.101C73.4261 274.616 73.2461 275.329 73.2461 276.24ZM84.3135 272.371C84.4639 272.371 84.6211 272.38 84.7852 272.398C84.9492 272.412 85.0951 272.433 85.2227 272.46L85.0791 273.513C84.9561 273.481 84.8193 273.456 84.6689 273.438C84.5186 273.419 84.3773 273.41 84.2451 273.41C83.9443 273.41 83.6595 273.472 83.3906 273.595C83.1263 273.713 82.8939 273.886 82.6934 274.114C82.4928 274.338 82.3356 274.609 82.2217 274.928C82.1077 275.242 82.0508 275.593 82.0508 275.98V280H80.9092V272.508H81.8525L81.9756 273.889H82.0234C82.1784 273.611 82.3652 273.358 82.584 273.13C82.8027 272.897 83.0557 272.713 83.3428 272.576C83.6344 272.439 83.958 272.371 84.3135 272.371ZM89.3037 280.137C88.3558 280.137 87.6038 279.813 87.0479 279.166C86.4964 278.519 86.2207 277.557 86.2207 276.281C86.2207 274.992 86.5033 274.019 87.0684 273.362C87.6335 272.701 88.3854 272.371 89.3242 272.371C89.7207 272.371 90.0671 272.424 90.3633 272.528C90.6595 272.633 90.9147 272.774 91.1289 272.952C91.3431 273.125 91.5231 273.324 91.6689 273.547H91.751C91.7327 273.406 91.7145 273.212 91.6963 272.966C91.6781 272.72 91.6689 272.519 91.6689 272.364V269.363H92.8037V280H91.8877L91.7168 278.934H91.6689C91.5277 279.157 91.3477 279.36 91.1289 279.542C90.9147 279.724 90.6572 279.87 90.3564 279.979C90.0602 280.084 89.7093 280.137 89.3037 280.137ZM89.4814 279.193C90.2835 279.193 90.8509 278.965 91.1836 278.51C91.5163 278.054 91.6826 277.377 91.6826 276.479V276.274C91.6826 275.322 91.5231 274.59 91.2041 274.08C90.8896 273.57 90.3154 273.314 89.4814 273.314C88.7842 273.314 88.2624 273.583 87.916 274.121C87.5697 274.654 87.3965 275.383 87.3965 276.309C87.3965 277.229 87.5674 277.94 87.9092 278.441C88.2555 278.943 88.7796 279.193 89.4814 279.193ZM105.765 275.01C105.765 275.443 105.715 275.867 105.614 276.281C105.519 276.691 105.37 277.063 105.17 277.396C104.969 277.724 104.719 277.986 104.418 278.182C104.122 278.378 103.771 278.476 103.365 278.476C102.941 278.476 102.604 278.353 102.354 278.106C102.103 277.86 101.952 277.569 101.902 277.231H101.841C101.668 277.591 101.412 277.89 101.075 278.127C100.743 278.359 100.332 278.476 99.8447 278.476C99.1338 278.476 98.5846 278.241 98.1973 277.771C97.8145 277.298 97.623 276.669 97.623 275.885C97.623 275.274 97.7438 274.734 97.9854 274.265C98.2314 273.791 98.5755 273.419 99.0176 273.15C99.4642 272.877 99.9906 272.74 100.597 272.74C101.002 272.74 101.396 272.774 101.779 272.843C102.162 272.911 102.467 272.986 102.695 273.068L102.559 275.823C102.554 275.992 102.549 276.122 102.545 276.213C102.54 276.299 102.538 276.368 102.538 276.418C102.538 276.91 102.625 277.243 102.798 277.416C102.976 277.585 103.19 277.669 103.44 277.669C103.746 277.669 104.001 277.55 104.206 277.313C104.416 277.072 104.575 276.751 104.685 276.35C104.794 275.944 104.849 275.495 104.849 275.003C104.849 274.132 104.673 273.39 104.322 272.774C103.971 272.159 103.486 271.69 102.866 271.366C102.251 271.043 101.542 270.881 100.74 270.881C99.9427 270.881 99.234 271.006 98.6143 271.257C97.999 271.507 97.4772 271.863 97.0488 272.323C96.625 272.779 96.3037 273.321 96.085 273.95C95.8662 274.579 95.7568 275.274 95.7568 276.035C95.7568 276.965 95.9209 277.756 96.249 278.407C96.5817 279.059 97.0671 279.556 97.7051 279.897C98.3477 280.235 99.1292 280.403 100.05 280.403C100.606 280.403 101.141 280.342 101.656 280.219C102.171 280.096 102.632 279.957 103.037 279.802V280.69C102.636 280.859 102.187 280.996 101.69 281.101C101.194 281.21 100.647 281.265 100.05 281.265C98.9515 281.265 98.0127 281.057 97.2334 280.643C96.4541 280.232 95.8571 279.64 95.4424 278.865C95.0277 278.09 94.8203 277.161 94.8203 276.076C94.8203 275.197 94.9548 274.388 95.2236 273.649C95.4971 272.911 95.889 272.271 96.3994 271.729C96.9144 271.186 97.5365 270.767 98.2656 270.471C98.9993 270.17 99.8242 270.02 100.74 270.02C101.72 270.02 102.586 270.222 103.338 270.628C104.094 271.029 104.687 271.603 105.115 272.351C105.548 273.093 105.765 273.98 105.765 275.01ZM98.6416 275.912C98.6416 276.518 98.7624 276.963 99.0039 277.245C99.2454 277.528 99.5804 277.669 100.009 277.669C100.537 277.669 100.925 277.471 101.171 277.074C101.422 276.678 101.565 276.154 101.602 275.502L101.684 273.718C101.551 273.677 101.39 273.643 101.198 273.615C101.011 273.583 100.815 273.567 100.61 273.567C100.141 273.567 99.7604 273.679 99.4688 273.902C99.1816 274.126 98.972 274.415 98.8398 274.771C98.7077 275.126 98.6416 275.507 98.6416 275.912ZM106.578 272.508H107.795L109.449 276.855C109.545 277.111 109.634 277.357 109.716 277.594C109.798 277.826 109.871 278.049 109.935 278.264C109.998 278.478 110.049 278.685 110.085 278.886H110.133C110.197 278.658 110.288 278.359 110.406 277.99C110.525 277.617 110.652 277.236 110.789 276.849L112.354 272.508H113.578L110.317 281.101C110.144 281.561 109.941 281.962 109.709 282.304C109.481 282.646 109.203 282.908 108.875 283.09C108.547 283.277 108.15 283.37 107.686 283.37C107.471 283.37 107.282 283.356 107.118 283.329C106.954 283.306 106.813 283.279 106.694 283.247V282.338C106.795 282.361 106.915 282.381 107.057 282.399C107.202 282.418 107.353 282.427 107.508 282.427C107.79 282.427 108.034 282.372 108.239 282.263C108.449 282.158 108.629 282.003 108.779 281.798C108.93 281.593 109.06 281.349 109.169 281.066L109.579 280.014L106.578 272.508ZM117.577 272.385C118.47 272.385 119.133 272.585 119.566 272.986C119.999 273.387 120.216 274.028 120.216 274.907V280H119.389L119.17 278.893H119.115C118.906 279.166 118.687 279.396 118.459 279.583C118.231 279.765 117.967 279.904 117.666 280C117.37 280.091 117.005 280.137 116.572 280.137C116.117 280.137 115.711 280.057 115.355 279.897C115.005 279.738 114.727 279.496 114.521 279.173C114.321 278.849 114.221 278.439 114.221 277.942C114.221 277.195 114.517 276.621 115.109 276.22C115.702 275.819 116.604 275.6 117.816 275.563L119.108 275.509V275.051C119.108 274.404 118.969 273.95 118.691 273.69C118.413 273.431 118.021 273.301 117.516 273.301C117.124 273.301 116.75 273.358 116.395 273.472C116.039 273.586 115.702 273.72 115.383 273.875L115.034 273.014C115.371 272.84 115.759 272.692 116.196 272.569C116.634 272.446 117.094 272.385 117.577 272.385ZM119.095 276.309L117.953 276.356C117.019 276.393 116.36 276.546 115.978 276.814C115.595 277.083 115.403 277.464 115.403 277.956C115.403 278.384 115.533 278.701 115.793 278.906C116.053 279.111 116.397 279.214 116.825 279.214C117.491 279.214 118.035 279.029 118.459 278.66C118.883 278.291 119.095 277.737 119.095 276.999V276.309ZM123.688 269.363V272.542C123.688 272.724 123.684 272.909 123.675 273.096C123.666 273.278 123.65 273.447 123.627 273.602H123.702C123.857 273.337 124.053 273.116 124.29 272.938C124.532 272.756 124.805 272.619 125.11 272.528C125.416 272.433 125.739 272.385 126.081 272.385C126.683 272.385 127.184 272.48 127.585 272.672C127.991 272.863 128.294 273.16 128.494 273.561C128.699 273.962 128.802 274.481 128.802 275.119V280H127.681V275.194C127.681 274.57 127.537 274.103 127.25 273.793C126.967 273.483 126.532 273.328 125.944 273.328C125.388 273.328 124.944 273.435 124.611 273.649C124.283 273.859 124.046 274.169 123.9 274.579C123.759 274.989 123.688 275.491 123.688 276.083V280H122.554V269.363H123.688ZM137.6 276.24C137.6 276.855 137.52 277.405 137.36 277.888C137.201 278.371 136.971 278.779 136.67 279.111C136.369 279.444 136.005 279.699 135.576 279.877C135.152 280.05 134.672 280.137 134.134 280.137C133.632 280.137 133.172 280.05 132.753 279.877C132.338 279.699 131.978 279.444 131.673 279.111C131.372 278.779 131.137 278.371 130.969 277.888C130.805 277.405 130.723 276.855 130.723 276.24C130.723 275.42 130.862 274.723 131.14 274.148C131.418 273.57 131.814 273.13 132.329 272.829C132.849 272.524 133.466 272.371 134.182 272.371C134.865 272.371 135.462 272.524 135.973 272.829C136.488 273.134 136.886 273.576 137.169 274.155C137.456 274.729 137.6 275.424 137.6 276.24ZM131.898 276.24C131.898 276.842 131.978 277.364 132.138 277.806C132.297 278.248 132.543 278.59 132.876 278.831C133.209 279.073 133.637 279.193 134.161 279.193C134.681 279.193 135.107 279.073 135.439 278.831C135.777 278.59 136.025 278.248 136.185 277.806C136.344 277.364 136.424 276.842 136.424 276.24C136.424 275.643 136.344 275.128 136.185 274.695C136.025 274.258 135.779 273.921 135.446 273.684C135.114 273.447 134.683 273.328 134.154 273.328C133.375 273.328 132.803 273.586 132.438 274.101C132.078 274.616 131.898 275.329 131.898 276.24ZM146.021 276.24C146.021 276.855 145.942 277.405 145.782 277.888C145.623 278.371 145.393 278.779 145.092 279.111C144.791 279.444 144.426 279.699 143.998 279.877C143.574 280.05 143.093 280.137 142.556 280.137C142.054 280.137 141.594 280.05 141.175 279.877C140.76 279.699 140.4 279.444 140.095 279.111C139.794 278.779 139.559 278.371 139.391 277.888C139.227 277.405 139.145 276.855 139.145 276.24C139.145 275.42 139.284 274.723 139.562 274.148C139.84 273.57 140.236 273.13 140.751 272.829C141.271 272.524 141.888 272.371 142.604 272.371C143.287 272.371 143.884 272.524 144.395 272.829C144.91 273.134 145.308 273.576 145.591 274.155C145.878 274.729 146.021 275.424 146.021 276.24ZM140.32 276.24C140.32 276.842 140.4 277.364 140.56 277.806C140.719 278.248 140.965 278.59 141.298 278.831C141.631 279.073 142.059 279.193 142.583 279.193C143.103 279.193 143.529 279.073 143.861 278.831C144.199 278.59 144.447 278.248 144.606 277.806C144.766 277.364 144.846 276.842 144.846 276.24C144.846 275.643 144.766 275.128 144.606 274.695C144.447 274.258 144.201 273.921 143.868 273.684C143.535 273.447 143.105 273.328 142.576 273.328C141.797 273.328 141.225 273.586 140.86 274.101C140.5 274.616 140.32 275.329 140.32 276.24ZM147.812 279.289C147.812 278.97 147.89 278.744 148.045 278.612C148.2 278.476 148.389 278.407 148.612 278.407C148.845 278.407 149.041 278.476 149.2 278.612C149.36 278.744 149.439 278.97 149.439 279.289C149.439 279.604 149.36 279.834 149.2 279.979C149.041 280.121 148.845 280.191 148.612 280.191C148.389 280.191 148.2 280.121 148.045 279.979C147.89 279.834 147.812 279.604 147.812 279.289ZM154.662 280.137C153.988 280.137 153.393 279.998 152.878 279.72C152.363 279.442 151.962 279.018 151.675 278.448C151.388 277.879 151.244 277.161 151.244 276.295C151.244 275.388 151.395 274.647 151.695 274.073C152.001 273.494 152.42 273.066 152.953 272.788C153.486 272.51 154.092 272.371 154.771 272.371C155.145 272.371 155.505 272.41 155.852 272.487C156.202 272.56 156.49 272.654 156.713 272.768L156.371 273.718C156.143 273.627 155.879 273.545 155.578 273.472C155.282 273.399 155.004 273.362 154.744 273.362C154.225 273.362 153.792 273.474 153.445 273.697C153.104 273.921 152.846 274.249 152.673 274.682C152.504 275.115 152.42 275.648 152.42 276.281C152.42 276.887 152.502 277.405 152.666 277.833C152.835 278.261 153.083 278.59 153.411 278.817C153.744 279.041 154.159 279.152 154.655 279.152C155.052 279.152 155.41 279.111 155.729 279.029C156.048 278.943 156.337 278.842 156.597 278.729V279.74C156.346 279.868 156.066 279.966 155.756 280.034C155.451 280.103 155.086 280.137 154.662 280.137ZM164.834 276.24C164.834 276.855 164.754 277.405 164.595 277.888C164.435 278.371 164.205 278.779 163.904 279.111C163.604 279.444 163.239 279.699 162.811 279.877C162.387 280.05 161.906 280.137 161.368 280.137C160.867 280.137 160.407 280.05 159.987 279.877C159.573 279.699 159.213 279.444 158.907 279.111C158.606 278.779 158.372 278.371 158.203 277.888C158.039 277.405 157.957 276.855 157.957 276.24C157.957 275.42 158.096 274.723 158.374 274.148C158.652 273.57 159.049 273.13 159.563 272.829C160.083 272.524 160.701 272.371 161.416 272.371C162.1 272.371 162.697 272.524 163.207 272.829C163.722 273.134 164.121 273.576 164.403 274.155C164.69 274.729 164.834 275.424 164.834 276.24ZM159.133 276.24C159.133 276.842 159.213 277.364 159.372 277.806C159.532 278.248 159.778 278.59 160.11 278.831C160.443 279.073 160.871 279.193 161.396 279.193C161.915 279.193 162.341 279.073 162.674 278.831C163.011 278.59 163.259 278.248 163.419 277.806C163.578 277.364 163.658 276.842 163.658 276.24C163.658 275.643 163.578 275.128 163.419 274.695C163.259 274.258 163.013 273.921 162.681 273.684C162.348 273.447 161.917 273.328 161.389 273.328C160.609 273.328 160.037 273.586 159.673 274.101C159.313 274.616 159.133 275.329 159.133 276.24ZM174.931 272.371C175.756 272.371 176.378 272.588 176.797 273.021C177.216 273.449 177.426 274.139 177.426 275.092V280H176.305V275.146C176.305 274.54 176.173 274.087 175.908 273.786C175.648 273.481 175.261 273.328 174.746 273.328C174.021 273.328 173.495 273.538 173.167 273.957C172.839 274.376 172.675 274.994 172.675 275.81V280H171.547V275.146C171.547 274.741 171.488 274.404 171.369 274.135C171.255 273.866 171.082 273.665 170.85 273.533C170.622 273.396 170.332 273.328 169.981 273.328C169.485 273.328 169.086 273.431 168.785 273.636C168.484 273.841 168.266 274.146 168.129 274.552C167.997 274.953 167.931 275.447 167.931 276.035V280H166.796V272.508H167.712L167.883 273.567H167.944C168.095 273.308 168.284 273.089 168.512 272.911C168.74 272.733 168.995 272.599 169.277 272.508C169.56 272.417 169.861 272.371 170.18 272.371C170.749 272.371 171.226 272.478 171.608 272.692C171.996 272.902 172.276 273.223 172.449 273.656H172.511C172.757 273.223 173.094 272.902 173.522 272.692C173.951 272.478 174.42 272.371 174.931 272.371Z" fill="#C0C0C0"/>
<line x1="17" y1="293.5" x2="271" y2="293.5" stroke="#4A4A4A"/>
<line x1="17" y1="232.5" x2="271" y2="232.5" stroke="#4A4A4A"/>
<path d="M20.5784 321V309.578H29.0862V321H27.7737V310.75H21.9065V321H20.5784ZM35.2424 312.297C36.2633 312.297 37.0211 312.526 37.5159 312.984C38.0107 313.443 38.2581 314.174 38.2581 315.18V321H37.3127L37.0627 319.734H37.0002C36.7607 320.047 36.5107 320.31 36.2502 320.523C35.9898 320.732 35.6877 320.891 35.344 321C35.0055 321.104 34.5888 321.156 34.094 321.156C33.5732 321.156 33.1096 321.065 32.7034 320.883C32.3023 320.701 31.9846 320.424 31.7502 320.055C31.5211 319.685 31.4065 319.216 31.4065 318.648C31.4065 317.794 31.745 317.138 32.4221 316.68C33.0992 316.221 34.1305 315.971 35.5159 315.93L36.9924 315.867V315.344C36.9924 314.604 36.8336 314.086 36.5159 313.789C36.1982 313.492 35.7502 313.344 35.1721 313.344C34.7242 313.344 34.2971 313.409 33.8909 313.539C33.4846 313.669 33.0992 313.823 32.7346 314L32.3362 313.016C32.7216 312.818 33.1643 312.648 33.6643 312.508C34.1643 312.367 34.6903 312.297 35.2424 312.297ZM36.9768 316.781L35.6721 316.836C34.6044 316.878 33.8518 317.052 33.4143 317.359C32.9768 317.667 32.7581 318.102 32.7581 318.664C32.7581 319.154 32.9065 319.516 33.2034 319.75C33.5002 319.984 33.8935 320.102 34.3831 320.102C35.1435 320.102 35.7659 319.891 36.2502 319.469C36.7346 319.047 36.9768 318.414 36.9768 317.57V316.781ZM44.3596 321.156C43.5888 321.156 42.9091 320.997 42.3206 320.68C41.732 320.362 41.2737 319.878 40.9456 319.227C40.6174 318.576 40.4534 317.755 40.4534 316.766C40.4534 315.729 40.6252 314.883 40.969 314.227C41.318 313.565 41.7971 313.076 42.4065 312.758C43.0159 312.44 43.7086 312.281 44.4846 312.281C44.9117 312.281 45.3232 312.326 45.719 312.414C46.12 312.497 46.4482 312.604 46.7034 312.734L46.3127 313.82C46.0523 313.716 45.7502 313.622 45.4065 313.539C45.068 313.456 44.7502 313.414 44.4534 313.414C43.8596 313.414 43.3648 313.542 42.969 313.797C42.5784 314.052 42.2841 314.427 42.0862 314.922C41.8935 315.417 41.7971 316.026 41.7971 316.75C41.7971 317.443 41.8909 318.034 42.0784 318.523C42.2711 319.013 42.5549 319.388 42.9299 319.648C43.3101 319.904 43.7841 320.031 44.3518 320.031C44.8049 320.031 45.2138 319.984 45.5784 319.891C45.943 319.792 46.2737 319.677 46.5706 319.547V320.703C46.2841 320.849 45.9638 320.961 45.6096 321.039C45.2607 321.117 44.844 321.156 44.3596 321.156ZM55.7737 312.438V321H54.469V313.555H49.9065V321H48.6018V312.438H55.7737ZM65.9065 316.703C65.9065 317.406 65.8153 318.034 65.6331 318.586C65.4508 319.138 65.1877 319.604 64.844 319.984C64.5002 320.365 64.0836 320.656 63.594 320.859C63.1096 321.057 62.5601 321.156 61.9456 321.156C61.3726 321.156 60.8466 321.057 60.3674 320.859C59.8935 320.656 59.482 320.365 59.1331 319.984C58.7893 319.604 58.5211 319.138 58.3284 318.586C58.1409 318.034 58.0471 317.406 58.0471 316.703C58.0471 315.766 58.206 314.969 58.5237 314.312C58.8414 313.651 59.2945 313.148 59.8831 312.805C60.4768 312.456 61.1825 312.281 62.0002 312.281C62.7815 312.281 63.4638 312.456 64.0471 312.805C64.6357 313.154 65.0914 313.659 65.4143 314.32C65.7424 314.977 65.9065 315.771 65.9065 316.703ZM59.3909 316.703C59.3909 317.391 59.482 317.987 59.6643 318.492C59.8466 318.997 60.1278 319.388 60.5081 319.664C60.8883 319.94 61.3778 320.078 61.9768 320.078C62.5706 320.078 63.0575 319.94 63.4377 319.664C63.8232 319.388 64.107 318.997 64.2893 318.492C64.4716 317.987 64.5627 317.391 64.5627 316.703C64.5627 316.021 64.4716 315.432 64.2893 314.938C64.107 314.438 63.8258 314.052 63.4456 313.781C63.0653 313.51 62.5732 313.375 61.969 313.375C61.0784 313.375 60.4247 313.669 60.0081 314.258C59.5966 314.846 59.3909 315.661 59.3909 316.703ZM72.1721 312.281C73.2398 312.281 74.0914 312.648 74.7268 313.383C75.3622 314.117 75.6799 315.221 75.6799 316.695C75.6799 317.669 75.5341 318.487 75.2424 319.148C74.9508 319.81 74.5393 320.31 74.0081 320.648C73.482 320.987 72.8596 321.156 72.1409 321.156C71.6877 321.156 71.2893 321.096 70.9456 320.977C70.6018 320.857 70.3075 320.695 70.0627 320.492C69.818 320.289 69.6148 320.068 69.4534 319.828H69.3596C69.3752 320.031 69.3935 320.276 69.4143 320.562C69.4403 320.849 69.4534 321.099 69.4534 321.312V324.828H68.1487V312.438H69.219L69.3909 313.703H69.4534C69.62 313.443 69.8232 313.206 70.0627 312.992C70.3023 312.773 70.594 312.602 70.9377 312.477C71.2867 312.346 71.6982 312.281 72.1721 312.281ZM71.9456 313.375C71.3518 313.375 70.8726 313.49 70.5081 313.719C70.1487 313.948 69.8857 314.292 69.719 314.75C69.5523 315.203 69.4638 315.773 69.4534 316.461V316.711C69.4534 317.435 69.5315 318.047 69.6877 318.547C69.8492 319.047 70.1122 319.427 70.4768 319.688C70.8466 319.948 71.3414 320.078 71.9612 320.078C72.4924 320.078 72.9351 319.935 73.2893 319.648C73.6435 319.362 73.9065 318.964 74.0784 318.453C74.2555 317.938 74.344 317.346 74.344 316.68C74.344 315.669 74.1461 314.867 73.7502 314.273C73.3596 313.674 72.7581 313.375 71.9456 313.375ZM83.7815 313.539H80.9612V321H79.6799V313.539H76.8987V312.438H83.7815V313.539Z" fill="white"/>
<path d="M21.4502 330.363L21.1904 333.077L23.8906 332.291L24.0684 333.487L21.4844 333.754L23.1523 335.976L22.0449 336.584L20.8076 334.15L19.6729 336.584L18.5244 335.976L20.1787 333.754L17.6084 333.487L17.7998 332.291L20.459 333.077L20.1924 330.363H21.4502ZM29.1611 330.363L28.9014 333.077L31.6016 332.291L31.7793 333.487L29.1953 333.754L30.8633 335.976L29.7559 336.584L28.5186 334.15L27.3838 336.584L26.2354 335.976L27.8896 333.754L25.3193 333.487L25.5107 332.291L28.1699 333.077L27.9033 330.363H29.1611ZM40.5088 330.363L40.249 333.077L42.9492 332.291L43.127 333.487L40.543 333.754L42.2109 335.976L41.1035 336.584L39.8662 334.15L38.7314 336.584L37.583 335.976L39.2373 333.754L36.667 333.487L36.8584 332.291L39.5176 333.077L39.251 330.363H40.5088ZM48.2197 330.363L47.96 333.077L50.6602 332.291L50.8379 333.487L48.2539 333.754L49.9219 335.976L48.8145 336.584L47.5771 334.15L46.4424 336.584L45.2939 335.976L46.9482 333.754L44.3779 333.487L44.5693 332.291L47.2285 333.077L46.9619 330.363H48.2197ZM59.5674 330.363L59.3076 333.077L62.0078 332.291L62.1855 333.487L59.6016 333.754L61.2695 335.976L60.1621 336.584L58.9248 334.15L57.79 336.584L56.6416 335.976L58.2959 333.754L55.7256 333.487L55.917 332.291L58.5762 333.077L58.3096 330.363H59.5674ZM67.2783 330.363L67.0186 333.077L69.7188 332.291L69.8965 333.487L67.3125 333.754L68.9805 335.976L67.873 336.584L66.6357 334.15L65.501 336.584L64.3525 335.976L66.0068 333.754L63.4365 333.487L63.6279 332.291L66.2871 333.077L66.0205 330.363H67.2783ZM74.9893 330.363L74.7295 333.077L77.4297 332.291L77.6074 333.487L75.0234 333.754L76.6914 335.976L75.584 336.584L74.3467 334.15L73.2119 336.584L72.0635 335.976L73.7178 333.754L71.1475 333.487L71.3389 332.291L73.998 333.077L73.7314 330.363H74.9893ZM82.7002 330.363L82.4404 333.077L85.1406 332.291L85.3184 333.487L82.7344 333.754L84.4023 335.976L83.2949 336.584L82.0576 334.15L80.9229 336.584L79.7744 335.976L81.4287 333.754L78.8584 333.487L79.0498 332.291L81.709 333.077L81.4424 330.363H82.7002ZM87.9434 341L92.0449 332.045H86.5967V331.006H93.2617V331.881L89.1875 341H87.9434ZM101.226 335.265C101.226 335.871 101.182 336.461 101.096 337.035C101.014 337.609 100.87 338.145 100.665 338.642C100.465 339.138 100.191 339.574 99.8447 339.947C99.4984 340.321 99.0632 340.615 98.5391 340.829C98.0195 341.039 97.3975 341.144 96.6729 341.144C96.4769 341.144 96.2536 341.13 96.0029 341.103C95.7523 341.08 95.5472 341.046 95.3877 341V340.016C95.5563 340.075 95.7546 340.123 95.9824 340.159C96.2103 340.191 96.4336 340.207 96.6523 340.207C97.5046 340.207 98.1745 340.025 98.6621 339.66C99.1497 339.291 99.5007 338.792 99.7148 338.163C99.929 337.53 100.05 336.819 100.077 336.03H99.9951C99.8584 336.249 99.6784 336.452 99.4551 336.639C99.2363 336.821 98.9697 336.969 98.6553 337.083C98.3408 337.192 97.974 337.247 97.5547 337.247C96.9759 337.247 96.4701 337.129 96.0371 336.892C95.6087 336.655 95.2738 336.311 95.0322 335.859C94.7952 335.408 94.6768 334.864 94.6768 334.226C94.6768 333.537 94.8066 332.943 95.0664 332.441C95.3307 331.936 95.6999 331.546 96.1738 331.272C96.6478 330.999 97.2061 330.862 97.8486 330.862C98.3408 330.862 98.792 330.956 99.2021 331.143C99.6123 331.329 99.9678 331.61 100.269 331.983C100.574 332.353 100.809 332.811 100.973 333.357C101.141 333.904 101.226 334.54 101.226 335.265ZM97.8486 331.826C97.2425 331.826 96.7503 332.024 96.3721 332.421C95.9984 332.817 95.8115 333.414 95.8115 334.212C95.8115 334.873 95.9733 335.395 96.2969 335.777C96.6204 336.16 97.1195 336.352 97.7939 336.352C98.2588 336.352 98.6598 336.258 98.9971 336.071C99.3389 335.884 99.6009 335.647 99.7832 335.36C99.9701 335.073 100.063 334.779 100.063 334.479C100.063 334.178 100.018 333.872 99.9268 333.562C99.8402 333.253 99.7057 332.968 99.5234 332.708C99.3411 332.444 99.111 332.232 98.833 332.072C98.555 331.908 98.2269 331.826 97.8486 331.826Z" fill="#C0C0C0"/>
<line x1="17" y1="293.5" x2="271" y2="293.5" stroke="#4A4A4A"/>
<defs>
<filter id="filter0_b_50_148" x="-4" y="-4" width="296" height="366" filterUnits="userSpaceOnUse" color-interpolation-filters="sRGB">
<feFlood flood-opacity="0" result="BackgroundImageFix"/>
<feGaussianBlur in="BackgroundImage" stdDeviation="2"/>
<feComposite in2="SourceAlpha" operator="in" result="effect1_backgroundBlur_50_148"/>
<feBlend mode="normal" in="SourceGraphic" in2="effect1_backgroundBlur_50_148" result="shape"/>
</filter>
</defs>
</svg>
