<svg width="33" height="33" viewBox="0 0 33 33" fill="none" xmlns="http://www.w3.org/2000/svg">
<path d="M16.3637 7.01297C15.2078 7.01297 14.0779 7.35572 13.1169 7.99789C12.1558 8.64005 11.4067 9.55278 10.9644 10.6207C10.5221 11.6885 10.4063 12.8636 10.6318 13.9973C10.8573 15.1309 11.4139 16.1722 12.2312 16.9896C13.0486 17.8069 14.0899 18.3635 15.2236 18.589C16.3572 18.8145 17.5323 18.6987 18.6002 18.2564C19.668 17.8141 20.5808 17.065 21.2229 16.104C21.8651 15.1429 22.2078 14.013 22.2078 12.8571C22.2078 11.3072 21.5921 9.82067 20.4961 8.72468C19.4001 7.62869 17.9137 7.01297 16.3637 7.01297ZM16.3637 16.3636C15.6702 16.3636 14.9922 16.158 14.4156 15.7727C13.8389 15.3874 13.3895 14.8397 13.1241 14.199C12.8587 13.5583 12.7893 12.8532 12.9246 12.173C13.0599 11.4928 13.3938 10.8681 13.8842 10.3777C14.3746 9.88727 14.9994 9.55331 15.6796 9.41801C16.3598 9.28271 17.0648 9.35215 17.7056 9.61755C18.3463 9.88295 18.8939 10.3324 19.2792 10.909C19.6645 11.4857 19.8702 12.1636 19.8702 12.8571C19.8693 13.7868 19.4995 14.6782 18.8421 15.3356C18.1847 15.993 17.2934 16.3627 16.3637 16.3636Z" fill="#3EE28A"/>
<path d="M16.3636 0C13.1272 0 9.96348 0.95971 7.27249 2.75777C4.58151 4.55583 2.48414 7.11148 1.24561 10.1015C0.00709009 13.0916 -0.316964 16.3818 0.31443 19.556C0.945824 22.7303 2.50431 25.646 4.7928 27.9345C7.0813 30.223 9.99702 31.7814 13.1713 32.4128C16.3455 33.0442 19.6357 32.7202 22.6257 31.4817C25.6158 30.2431 28.1714 28.1458 29.9695 25.4548C31.7676 22.7638 32.7273 19.6001 32.7273 16.3636C32.7223 12.0252 30.9967 7.86597 27.929 4.79826C24.8613 1.73056 20.702 0.00494967 16.3636 0ZM9.35065 28.4926V26.8831C9.35158 25.9534 9.72131 25.0621 10.3787 24.4047C11.0361 23.7473 11.9275 23.3775 12.8571 23.3766H19.8701C20.7998 23.3775 21.6912 23.7473 22.3486 24.4047C23.006 25.0621 23.3757 25.9534 23.3766 26.8831V28.4926C21.2484 29.7353 18.8281 30.3902 16.3636 30.3902C13.8991 30.3902 11.4789 29.7353 9.35065 28.4926ZM25.7049 26.7966C25.6816 25.2635 25.057 23.8009 23.9656 22.7239C22.8742 21.647 21.4034 21.0418 19.8701 21.039H12.8571C11.3239 21.0418 9.85306 21.647 8.76167 22.7239C7.67027 23.8009 7.04564 25.2635 7.02234 26.7966C4.90274 24.904 3.408 22.4122 2.73605 19.6512C2.06409 16.8901 2.24662 13.9901 3.25945 11.3352C4.27229 8.68018 6.06767 6.39545 8.40784 4.78352C10.748 3.17158 13.5226 2.30847 16.3642 2.30847C19.2058 2.30847 21.9804 3.17158 24.3206 4.78352C26.6608 6.39545 28.4562 8.68018 29.469 11.3352C30.4818 13.9901 30.6644 16.8901 29.9924 19.6512C29.3204 22.4122 27.8257 24.904 25.7061 26.7966H25.7049Z" fill="#3EE28A"/>
</svg>
