<svg width="27" height="33" viewBox="0 0 27 33" fill="none" xmlns="http://www.w3.org/2000/svg">
<path d="M13.0913 19.6365C16.7011 19.6365 19.6368 16.7009 19.6368 13.091C19.6368 9.48116 16.7011 6.5455 13.0913 6.5455C9.48144 6.5455 6.54578 9.48116 6.54578 13.091C6.54578 16.7009 9.48144 19.6365 13.0913 19.6365ZM13.0913 9.81826C14.8962 9.81826 16.364 11.2861 16.364 13.091C16.364 14.8959 14.8962 16.3638 13.0913 16.3638C11.2864 16.3638 9.81853 14.8959 9.81853 13.091C9.81853 11.2861 11.2864 9.81826 13.0913 9.81826Z" fill="white"/>
<path d="M12.1421 32.4232C12.419 32.621 12.7508 32.7273 13.0912 32.7273C13.4315 32.7273 13.7633 32.621 14.0403 32.4232C14.5377 32.0713 26.2296 23.6293 26.1822 13.091C26.1822 5.87296 20.3092 0 13.0912 0C5.8731 0 0.000144063 5.87296 0.000144063 13.0828C-0.0473109 23.6293 11.6446 32.0713 12.1421 32.4232ZM13.0912 3.27275C18.5059 3.27275 22.9094 7.67624 22.9094 13.0992C22.9438 20.3614 15.729 26.8824 13.0912 29.0211C10.455 26.8808 3.23853 20.3582 3.2729 13.091C3.2729 7.67624 7.67639 3.27275 13.0912 3.27275Z" fill="white"/>
</svg>
