<svg width="25" height="25" viewBox="0 0 25 25" fill="none" xmlns="http://www.w3.org/2000/svg">
<path d="M14.846 25H10.1561C9.86224 25 9.5772 24.9026 9.34825 24.7239C9.11929 24.5452 8.96018 24.296 8.89729 24.0175L8.3729 21.6625C7.67336 21.3651 7.01004 20.9933 6.39516 20.5538L4.02831 21.285C3.74816 21.3717 3.44587 21.3628 3.17166 21.2598C2.89744 21.1568 2.66779 20.9659 2.52084 20.7188L0.170744 16.78C0.0253388 16.5327 -0.0292428 16.2448 0.0159294 15.9634C0.0611017 15.6821 0.203353 15.424 0.419412 15.2313L2.25543 13.6063C2.17193 12.8701 2.17193 12.1274 2.25543 11.3912L0.419412 9.77C0.203047 9.57722 0.0606022 9.31884 0.0154226 9.03723C-0.0297571 8.75561 0.0250089 8.46746 0.170744 8.22L2.51569 4.27875C2.66264 4.03164 2.89229 3.84074 3.1665 3.73773C3.44072 3.63473 3.743 3.62583 4.02316 3.7125L6.39001 4.44375C6.70438 4.21875 7.03164 4.00875 7.36921 3.81875C7.69519 3.64125 8.03018 3.48 8.3729 3.33625L8.89858 0.98375C8.96116 0.705247 9.11998 0.45586 9.34869 0.276936C9.57741 0.0980123 9.86228 0.000299957 10.1561 0H14.846C15.1398 0.000299957 15.4247 0.0980123 15.6534 0.276936C15.8821 0.45586 16.0409 0.705247 16.1035 0.98375L16.6343 3.3375C17.3335 3.63487 17.9964 4.00674 18.6108 4.44625L20.9789 3.715C21.2589 3.62865 21.5609 3.63771 21.8348 3.7407C22.1088 3.84369 22.3382 4.03441 22.4851 4.28125L24.83 8.2225C25.129 8.73125 25.0259 9.375 24.5814 9.77125L22.7454 11.3962C22.8289 12.1324 22.8289 12.8751 22.7454 13.6112L24.5814 15.2362C25.0259 15.6337 25.129 16.2763 24.83 16.785L22.4851 20.7262C22.3382 20.9734 22.1085 21.1643 21.8343 21.2673C21.5601 21.3703 21.2578 21.3792 20.9776 21.2925L18.6108 20.5612C17.9964 21.0004 17.3335 21.3719 16.6343 21.6687L16.1035 24.0175C16.0407 24.2958 15.8817 24.5449 15.653 24.7236C15.4244 24.9022 15.1396 24.9998 14.846 25ZM6.85771 17.7863L7.91422 18.5363C8.15258 18.7063 8.39996 18.8625 8.65765 19.005C8.89987 19.1413 9.14725 19.2638 9.40365 19.375L10.6058 19.8862L11.1946 22.5H13.8101L14.3989 19.885L15.601 19.3738C16.1254 19.1488 16.624 18.87 17.0866 18.5413L18.1431 17.7913L20.7741 18.6037L22.0818 16.4062L20.0422 14.6025L20.1865 13.3375C20.251 12.7838 20.251 12.225 20.1865 11.6725L20.0422 10.4075L22.0831 8.6L20.7741 6.40125L18.1444 7.21375L17.0866 6.46375C16.6238 6.13336 16.1257 5.85217 15.601 5.625L14.3989 5.11375L13.8101 2.5H11.1946L10.6019 5.115L9.40365 5.625C8.87821 5.84826 8.37996 6.12747 7.91809 6.4575L6.86028 7.2075L4.23188 6.395L2.92155 8.6L4.96113 10.4012L4.81683 11.6675C4.75241 12.2212 4.75241 12.78 4.81683 13.3325L4.96113 14.5975L2.92155 16.4013L4.22931 18.5987L6.85771 17.7863ZM12.4959 17.5C11.129 17.5 9.81816 16.9732 8.85165 16.0355C7.88514 15.0979 7.34216 13.8261 7.34216 12.5C7.34216 11.1739 7.88514 9.90215 8.85165 8.96447C9.81816 8.02678 11.129 7.5 12.4959 7.5C13.8627 7.5 15.1736 8.02678 16.1401 8.96447C17.1066 9.90215 17.6496 11.1739 17.6496 12.5C17.6496 13.8261 17.1066 15.0979 16.1401 16.0355C15.1736 16.9732 13.8627 17.5 12.4959 17.5ZM12.4959 10C11.9913 10.0005 11.4979 10.1447 11.077 10.4148C10.6562 10.6848 10.3262 11.0688 10.1283 11.5191C9.93028 11.9694 9.87292 12.4662 9.96331 12.9478C10.0537 13.4295 10.2879 13.8747 10.6367 14.2284C10.9856 14.5821 11.4338 14.8287 11.9258 14.9375C12.4178 15.0463 12.9319 15.0125 13.4043 14.8405C13.8767 14.6684 14.2866 14.3655 14.5832 13.9694C14.8798 13.5734 15.05 13.1016 15.0728 12.6125V13.1125V12.5C15.0728 11.837 14.8013 11.2011 14.318 10.7322C13.8347 10.2634 13.1793 10 12.4959 10Z" fill="#3EE28A"/>
</svg>
