<svg width="29" height="29" viewBox="0 0 29 29" fill="none" xmlns="http://www.w3.org/2000/svg">
<path d="M10.3333 7.00002V9.50002C10.3333 9.72103 10.2455 9.933 10.0892 10.0893C9.93294 10.2456 9.72097 10.3334 9.49996 10.3334H6.99996C6.77895 10.3334 6.56698 10.2456 6.4107 10.0893C6.25442 9.933 6.16663 9.72103 6.16663 9.50002V7.00002C6.16663 6.77901 6.25442 6.56705 6.4107 6.41076C6.56698 6.25448 6.77895 6.16669 6.99996 6.16669H9.49996C9.72097 6.16669 9.93294 6.25448 10.0892 6.41076C10.2455 6.56705 10.3333 6.77901 10.3333 7.00002V7.00002Z" stroke="#3EE28A" stroke-width="2.25" stroke-linecap="round" stroke-linejoin="round"/>
<path d="M6.16663 14.5H10.3333" stroke="#3EE28A" stroke-width="2.25" stroke-linecap="round" stroke-linejoin="round"/>
<path d="M18.6666 14.5V18.6667" stroke="#3EE28A" stroke-width="2.25" stroke-linecap="round" stroke-linejoin="round"/>
<path d="M14.5 22.8333H18.6667" stroke="#3EE28A" stroke-width="2.25" stroke-linecap="round" stroke-linejoin="round"/>
<path d="M14.5 14.5153L14.5139 14.5" stroke="#3EE28A" stroke-width="2.25" stroke-linecap="round" stroke-linejoin="round"/>
<path d="M22.8334 14.5153L22.8473 14.5" stroke="#3EE28A" stroke-width="2.25" stroke-linecap="round" stroke-linejoin="round"/>
<path d="M14.5 18.682L14.5139 18.6667" stroke="#3EE28A" stroke-width="2.25" stroke-linecap="round" stroke-linejoin="round"/>
<path d="M22.8334 18.682L22.8473 18.6667" stroke="#3EE28A" stroke-width="2.25" stroke-linecap="round" stroke-linejoin="round"/>
<path d="M22.8334 22.8486L22.8473 22.8333" stroke="#3EE28A" stroke-width="2.25" stroke-linecap="round" stroke-linejoin="round"/>
<path d="M14.5 10.3486L14.5139 10.3333" stroke="#3EE28A" stroke-width="2.25" stroke-linecap="round" stroke-linejoin="round"/>
<path d="M14.5 6.18197L14.5139 6.16669" stroke="#3EE28A" stroke-width="2.25" stroke-linecap="round" stroke-linejoin="round"/>
<path d="M10.3333 19.5V22C10.3333 22.221 10.2455 22.433 10.0892 22.5893C9.93294 22.7456 9.72097 22.8334 9.49996 22.8334H6.99996C6.77895 22.8334 6.56698 22.7456 6.4107 22.5893C6.25442 22.433 6.16663 22.221 6.16663 22V19.5C6.16663 19.279 6.25442 19.067 6.4107 18.9108C6.56698 18.7545 6.77895 18.6667 6.99996 18.6667H9.49996C9.72097 18.6667 9.93294 18.7545 10.0892 18.9108C10.2455 19.067 10.3333 19.279 10.3333 19.5V19.5Z" stroke="#3EE28A" stroke-width="2.25" stroke-linecap="round" stroke-linejoin="round"/>
<path d="M22.8333 7.00002V9.50002C22.8333 9.72103 22.7455 9.933 22.5892 10.0893C22.4329 10.2456 22.221 10.3334 22 10.3334H19.5C19.2789 10.3334 19.067 10.2456 18.9107 10.0893C18.7544 9.933 18.6666 9.72103 18.6666 9.50002V7.00002C18.6666 6.77901 18.7544 6.56705 18.9107 6.41076C19.067 6.25448 19.2789 6.16669 19.5 6.16669H22C22.221 6.16669 22.4329 6.25448 22.5892 6.41076C22.7455 6.56705 22.8333 6.77901 22.8333 7.00002V7.00002Z" stroke="#3EE28A" stroke-width="2.25" stroke-linecap="round" stroke-linejoin="round"/>
<path d="M22.8334 2H27V6.16667" stroke="#3EE28A" stroke-width="2.25" stroke-linecap="round" stroke-linejoin="round"/>
<path d="M22.8334 27H27V22.8333" stroke="#3EE28A" stroke-width="2.25" stroke-linecap="round" stroke-linejoin="round"/>
<path d="M6.16667 2H2V6.16667" stroke="#3EE28A" stroke-width="2.25" stroke-linecap="round" stroke-linejoin="round"/>
<path d="M6.16667 27H2V22.8333" stroke="#3EE28A" stroke-width="2.25" stroke-linecap="round" stroke-linejoin="round"/>
</svg>
