<svg width="144" height="143" viewBox="0 0 144 143" fill="none" xmlns="http://www.w3.org/2000/svg">
<path d="M21.7282 57.5649C18.5515 56.7137 16.6376 53.4335 17.8099 50.3608C21.1676 41.5596 26.6309 33.6788 33.758 27.4285C42.3826 19.8649 53.0563 15.0287 64.4295 13.5314C75.8027 12.0341 87.3645 13.943 97.6528 19.0166C107.941 24.0903 116.494 32.1008 122.23 42.0352C127.965 51.9697 130.626 63.3819 129.876 74.8286C129.126 86.2754 124.998 97.2426 118.014 106.343C111.031 115.444 101.506 122.27 90.6435 125.957C81.667 129.004 72.1104 129.795 62.8095 128.302C59.5623 127.781 57.6785 124.484 58.5297 121.307C59.3809 118.13 62.6465 116.286 65.9064 116.721C72.9138 117.656 80.0706 116.969 86.8153 114.68C95.4473 111.749 103.017 106.325 108.566 99.0933C114.115 91.8612 117.395 83.146 117.992 74.0497C118.588 64.9534 116.473 55.8846 111.915 47.9901C107.358 40.0955 100.561 33.7299 92.3853 29.698C84.2096 25.6662 75.0219 24.1493 65.984 25.3392C56.9462 26.529 48.4642 30.3722 41.6105 36.3827C36.2554 41.0789 32.0824 46.9336 29.3881 53.4696C28.1347 56.5101 24.9049 58.4161 21.7282 57.5649Z" fill="#222222"/>
<path d="M124.045 71.0352C127.334 71.0352 130.032 73.7083 129.695 76.9798C128.729 86.3501 125.492 95.3763 120.225 103.258C113.852 112.796 104.794 120.23 94.1956 124.62C83.5975 129.01 71.9357 130.159 60.6848 127.921C49.4339 125.683 39.0993 120.159 30.9878 112.047C22.8764 103.936 17.3524 93.6014 15.1145 82.3505C12.8765 71.0996 14.0251 59.4377 18.415 48.8396C22.8049 38.2415 30.2389 29.1831 39.7769 22.81C47.6589 17.5434 56.6851 14.306 66.0554 13.3406C69.3269 13.0036 72 15.7013 72 18.99C72 22.2788 69.323 24.9052 66.0616 25.329C59.051 26.2398 52.3158 28.7553 46.3936 32.7125C38.814 37.7769 32.9065 44.9753 29.4181 53.3972C25.9296 61.8191 25.0168 71.0863 26.7952 80.027C28.5737 88.9677 32.9633 97.1802 39.4092 103.626C45.855 110.072 54.0676 114.462 63.0082 116.24C71.9489 118.018 81.2161 117.106 89.638 113.617C98.0599 110.129 105.258 104.221 110.323 96.6417C114.28 90.7194 116.795 83.9842 117.706 76.9736C118.13 73.7122 120.756 71.0352 124.045 71.0352Z" fill="#3EE28A"/>
<path d="M77.6543 88.0352H70.1104V67.3809C70.1104 66.8113 70.1185 66.1114 70.1348 65.2813C70.151 64.435 70.1755 63.5723 70.208 62.6934C70.2406 61.7982 70.2731 60.9926 70.3057 60.2764C70.1266 60.488 69.7604 60.8542 69.207 61.3751C68.6699 61.8796 68.1654 62.3353 67.6934 62.7422L63.5918 66.0381L59.9541 61.4971L71.4531 52.3419H77.6543V88.0352Z" fill="white"/>
</svg>
