<svg width="36" height="46" viewBox="0 0 36 46" fill="none" xmlns="http://www.w3.org/2000/svg">
<path d="M19.3185 0.640026C19.1872 0.443144 19.0093 0.281715 18.8007 0.170066C18.5921 0.0584168 18.3591 0 18.1224 0C17.8858 0 17.6528 0.0584168 17.4442 0.170066C17.2355 0.281715 17.0577 0.443144 16.9264 0.640026L8.3012 13.5778C8.15715 13.7943 8.07451 14.0458 8.06208 14.3055C8.04966 14.5653 8.10791 14.8235 8.23065 15.0528C8.35338 15.282 8.53599 15.4736 8.75904 15.6073C8.98208 15.741 9.2372 15.8116 9.49723 15.8118H9.77899L3.9656 25.1126C3.8296 25.3302 3.75432 25.5803 3.74758 25.8368C3.74085 26.0933 3.8029 26.3469 3.92729 26.5714C4.05169 26.7958 4.23389 26.9829 4.45499 27.1131C4.67609 27.2434 4.92802 27.312 5.18463 27.312H5.73377L1.0244 36.7308C0.914578 36.9499 0.862626 37.1935 0.873481 37.4384C0.884336 37.6833 0.957638 37.9214 1.08642 38.13C1.2152 38.3386 1.39519 38.5108 1.60927 38.6302C1.82335 38.7496 2.06442 38.8123 2.30956 38.8123H15.2474V46H20.9975V38.8123H33.9353C34.1805 38.8123 34.4215 38.7496 34.6356 38.6302C34.8497 38.5108 35.0297 38.3386 35.1585 38.13C35.2872 37.9214 35.3605 37.6833 35.3714 37.4384C35.3823 37.1935 35.3303 36.9499 35.2205 36.7308L30.514 27.312H31.0631C31.3197 27.312 31.5717 27.2434 31.7928 27.1131C32.0139 26.9829 32.1961 26.7958 32.3205 26.5714C32.4449 26.3469 32.5069 26.0933 32.5002 25.8368C32.4934 25.5803 32.4182 25.3302 32.2822 25.1126L26.4659 15.8118H26.7477C27.0077 15.8116 27.2628 15.741 27.4858 15.6073C27.7089 15.4736 27.8915 15.282 28.0142 15.0528C28.137 14.8235 28.1952 14.5653 28.1828 14.3055C28.1704 14.0458 28.0877 13.7943 27.9437 13.5778L19.3185 0.640026ZM13.6287 13.6785C13.5045 13.454 13.3225 13.2668 13.1016 13.1363C12.8807 13.0059 12.6289 12.937 12.3723 12.9367H12.1825L18.1224 4.02686L24.0623 12.9367H23.8726C23.616 12.9367 23.364 13.0054 23.1429 13.1356C22.9218 13.2659 22.7396 13.4529 22.6152 13.6774C22.4909 13.9018 22.4288 14.1554 22.4355 14.412C22.4423 14.6685 22.5175 14.9185 22.6536 15.1361L28.4669 24.437H28.1852C27.94 24.437 27.699 24.4997 27.4849 24.6191C27.2708 24.7385 27.0908 24.9107 26.962 25.1193C26.8333 25.3279 26.76 25.566 26.7491 25.8109C26.7383 26.0558 26.7902 26.2994 26.9 26.5185L31.6065 35.9373H4.63549L9.34485 26.5185C9.45468 26.2994 9.50663 26.0558 9.49577 25.8109C9.48492 25.566 9.41162 25.3279 9.28283 25.1193C9.15405 24.9107 8.97407 24.7385 8.75998 24.6191C8.5459 24.4997 8.30484 24.437 8.0597 24.437H7.77794L13.5913 15.1361C13.727 14.9186 13.802 14.6687 13.8086 14.4124C13.8151 14.1561 13.753 13.9027 13.6287 13.6785Z" fill="#3EE28A"/>
</svg>
