<svg width="35" height="51" viewBox="0 0 35 51" fill="none" xmlns="http://www.w3.org/2000/svg">
<path d="M17.8294 28.0836L12.6124 22.8666" stroke="#3EE28A" stroke-width="2.68293" stroke-linecap="round" stroke-linejoin="round"/>
<path d="M17.8292 25.475L23.0461 20.2581" stroke="#3EE28A" stroke-width="2.68293" stroke-linecap="round" stroke-linejoin="round"/>
<path d="M17.8292 48.9513V15.0413" stroke="#3EE28A" stroke-width="2.68293" stroke-linecap="round" stroke-linejoin="round"/>
<path d="M12.1532 35.8959C11.0119 35.829 9.89915 35.513 8.89315 34.9699C7.88716 34.4268 7.01237 33.6699 6.33034 32.7523C5.64831 31.8348 5.17559 30.7791 4.94544 29.6592C4.71529 28.5394 4.73329 27.3827 4.99819 26.2706C4.05154 25.4837 3.30401 24.4845 2.81644 23.3542C2.32887 22.2239 2.11503 20.9944 2.19231 19.7659C2.26958 18.5373 2.6358 17.3443 3.26116 16.284C3.88653 15.2237 4.75337 14.326 5.79116 13.6639C4.88178 12.0484 4.57549 10.1625 4.92688 8.34217C5.27826 6.52188 6.2645 4.88546 7.70985 3.72447C9.15521 2.56349 10.9658 1.95336 12.8191 2.00278C14.6723 2.05221 16.4478 2.75799 17.8292 3.99437C19.2109 2.75994 20.9859 2.05584 22.8381 2.00737C24.6903 1.9589 26.4996 2.56922 27.944 3.72968C29.3884 4.89015 30.3742 6.52549 30.7259 8.34463C31.0776 10.1638 30.7724 12.0487 29.8647 13.6639C30.9031 14.3254 31.7706 15.2228 32.3965 16.283C33.0225 17.3432 33.3892 18.5363 33.4667 19.7651C33.5442 20.9938 33.3305 22.2235 32.8428 23.354C32.3551 24.4845 31.6073 25.4839 30.6602 26.2706C30.9341 27.4204 30.9439 28.6173 30.6889 29.7714C30.434 30.9256 29.9209 32.0069 29.1882 32.9344C28.4555 33.8619 27.5223 34.6113 26.4585 35.1265C25.3947 35.6416 24.2281 35.9091 23.0461 35.9089H12.6123L12.1532 35.8959Z" stroke="#3EE28A" stroke-width="2.68293" stroke-linecap="round" stroke-linejoin="round"/>
</svg>
