<svg width="29" height="27" viewBox="0 0 29 27" fill="none" xmlns="http://www.w3.org/2000/svg">
<path d="M13.343 1.79124C13.743 0.736254 15.2568 0.736254 15.658 1.79124L18.2455 8.95863C18.4267 9.43362 18.888 9.74987 19.4029 9.74987H25.7616C26.9366 9.74987 27.4491 11.2123 26.5253 11.9286L22.0004 15.9998C21.7977 16.1556 21.6496 16.3716 21.5773 16.6168C21.505 16.8621 21.5122 17.1239 21.5979 17.3648L23.2504 24.3684C23.6529 25.4934 22.3504 26.4596 21.3654 25.7671L15.2193 21.8672C15.0088 21.7193 14.7578 21.6399 14.5005 21.6399C14.2433 21.6399 13.9923 21.7193 13.7818 21.8672L7.63562 25.7671C6.65189 26.4596 5.34816 25.4921 5.75065 24.3684L7.40312 17.3648C7.48885 17.1239 7.49607 16.8621 7.42376 16.6168C7.35145 16.3716 7.20332 16.1556 7.00063 15.9998L2.4757 11.9286C1.55071 11.2123 2.06571 9.74987 3.23819 9.74987H9.59684C9.8472 9.7507 10.0919 9.6755 10.2986 9.53421C10.5053 9.39292 10.6642 9.19221 10.7543 8.95863L13.3418 1.79124H13.343Z" stroke="#3EE28A" stroke-width="2" stroke-linecap="round" stroke-linejoin="round"/>
</svg>
