<svg width="49" height="49" viewBox="0 0 49 49" fill="none" xmlns="http://www.w3.org/2000/svg">
<path d="M12.1113 13.1789C12.6758 6.91087 17.9433 2 24.3577 2C30.7722 2 36.0396 6.91087 36.6042 13.1789H36.6545C39.3228 13.1789 41.8819 14.2389 43.7687 16.1257C45.6555 18.0125 46.7155 20.5715 46.7155 23.2398C46.7155 25.9082 45.6555 28.4672 43.7687 30.354C41.8819 32.2408 39.3228 33.3008 36.6545 33.3008H12.061C9.39264 33.3008 6.83359 32.2408 4.94679 30.354C3.05999 28.4672 2 25.9082 2 23.2398C2 20.5715 3.05999 18.0125 4.94679 16.1257C6.83359 14.2389 9.39264 13.1789 12.061 13.1789H12.1113Z" stroke="#3EE28A" stroke-width="2.68293" stroke-linecap="round" stroke-linejoin="round"/>
<path d="M24.3577 28.8292L29.9471 23.2398" stroke="#3EE28A" stroke-width="2.68293" stroke-linecap="round" stroke-linejoin="round"/>
<path d="M24.3576 25.4756L17.6503 18.7683" stroke="#3EE28A" stroke-width="2.68293" stroke-linecap="round" stroke-linejoin="round"/>
<path d="M24.3577 46.7155V17.6505" stroke="#3EE28A" stroke-width="2.68293" stroke-linecap="round" stroke-linejoin="round"/>
</svg>
