<svg width="421" height="491" viewBox="0 0 421 491" fill="none" xmlns="http://www.w3.org/2000/svg">
<path d="M410.767 308.42L357.393 231.93V211.274V199.908V97.241C357.393 90.572 354.789 84.301 350.075 79.596L277.787 7.301C273.073 2.588 266.796 0 260.149 0H42.5965C19.1605 0 0.102539 19.066 0.102539 42.494V425.68C0.102539 449.107 19.1615 468.174 42.5965 468.174H201.904H241.618C243.52 470.714 245.533 473.174 247.85 475.379C257.883 484.972 271.397 490.955 286.351 490.955C313.286 490.955 285.104 490.955 320.714 490.955C335.65 490.955 349.197 484.973 359.231 475.379C370.924 464.22 376.579 449.554 376.579 435.089V395.029C392.795 391.611 406.693 381.163 414.489 366.218C424.151 347.704 422.731 325.554 410.767 308.42ZM135.095 414.872H52.4215V53.302H228.103V100.054C228.103 116.709 241.65 130.263 258.312 130.263H305.072V196.64H304.817V196.679C287.132 196.264 269.288 203.964 257.883 220.139L196.297 308.419C184.332 325.553 182.91 347.703 192.575 366.218C200.37 381.163 214.267 391.611 230.485 395.029V414.871H220.195H135.095V414.872ZM375.316 345.771C373.286 349.637 369.326 352.042 364.979 352.042H364.963H332.388V435.09C332.388 441.527 327.149 446.752 320.729 446.752H320.712H286.35H286.333C279.91 446.752 274.671 441.527 274.671 435.09V352.042H242.097H242.081C237.735 352.042 233.773 349.637 231.745 345.771C229.733 341.905 230.02 337.281 232.528 333.701L293.952 245.637C296.141 242.514 299.721 240.653 303.522 240.653H303.539C307.341 240.653 310.919 242.514 313.107 245.637L374.534 333.701C377.04 337.28 377.328 341.905 375.316 345.771Z" fill="white"/>
</svg>
