<svg width="34" height="32" viewBox="0 0 34 32" fill="none" xmlns="http://www.w3.org/2000/svg">
<path d="M5.38947 30.6961L5.38945 30.6961C4.91449 30.7902 4.43799 30.8765 3.96016 30.9547L3.9598 30.9547C3.47589 31.0322 3.11974 30.5313 3.30596 30.0929C3.48236 29.6769 3.64407 29.2548 3.79078 28.8274L3.79622 28.8093L3.79737 28.8054L3.79745 28.8054C4.28647 27.3857 4.6852 25.7564 4.8359 24.2371C2.38511 21.7647 0.9 18.5333 0.9 15C0.9 7.20064 8.12173 0.9 17 0.9C25.8783 0.9 33.1 7.20064 33.1 15C33.1 22.7993 25.8783 29.0999 17.0001 29.1C17.0001 29.1 17 29.1 17 29.1V29C15.4153 29.0021 13.8372 28.7964 12.306 28.388L5.38947 30.6961ZM5.38947 30.6961C9.01719 29.9761 11.2548 29.0279 12.3171 28.4944L5.38947 30.6961ZM6.42685 22.7174L6.42681 22.7174C4.32145 20.6061 3.1 17.9068 3.1 15C3.1 8.68281 9.05088 3.1 17 3.1C24.9491 3.1 30.9 8.68281 30.9 15C30.9 21.3192 24.9491 26.9 17 26.9H16.9998C15.5981 26.9022 14.2022 26.7205 12.8478 26.3594C12.3486 26.226 11.8178 26.2813 11.3568 26.5148C10.6054 26.8954 8.96153 27.6185 6.2783 28.2535C6.64277 26.9941 6.89418 25.7046 7.02947 24.4003L7.02955 24.3995C7.05896 24.0921 7.0202 23.7819 6.91602 23.4912C6.81185 23.2004 6.64482 22.9362 6.42685 22.7174ZM5.37 30.598C4.89614 30.6919 4.42074 30.778 3.944 30.856L5.37 30.598Z" fill="white" stroke="white" stroke-width="0.2"/>
</svg>
