<svg width="117" height="100" viewBox="0 0 117 100" fill="none" xmlns="http://www.w3.org/2000/svg">
<path d="M41.6903 16.6528C41.6903 12.2362 43.4448 8.00049 46.5678 4.87748C49.6908 1.75448 53.9265 0 58.3431 0C62.7596 0 66.9953 1.75448 70.1183 4.87748C73.2413 8.00049 74.9958 12.2362 74.9958 16.6528C74.9958 21.0694 73.2413 25.3051 70.1183 28.4281C66.9953 31.5511 62.7596 33.3056 58.3431 33.3056C53.9265 33.3056 49.6908 31.5511 46.5678 28.4281C43.4448 25.3051 41.6903 21.0694 41.6903 16.6528ZM58.3431 8.33472C57.2507 8.33472 56.1691 8.54987 55.1599 8.96789C54.1507 9.38592 53.2337 9.99862 52.4613 10.771C51.6889 11.5434 51.0762 12.4604 50.6582 13.4696C50.2402 14.4788 50.025 15.5604 50.025 16.6528C50.025 17.7451 50.2402 18.8268 50.6582 19.836C51.0762 20.8451 51.6889 21.7621 52.4613 22.5345C53.2337 23.3069 54.1507 23.9196 55.1599 24.3377C56.1691 24.7557 57.2507 24.9708 58.3431 24.9708C60.5491 24.9708 62.6649 24.0945 64.2248 22.5345C65.7847 20.9746 66.6611 18.8589 66.6611 16.6528C66.6611 14.4467 65.7847 12.331 64.2248 10.771C62.6649 9.21109 60.5491 8.33472 58.3431 8.33472ZM83.3472 20.8201C83.3472 19.1783 83.6706 17.5526 84.2989 16.0358C84.9272 14.519 85.8481 13.1408 87.009 11.9798C88.1699 10.8189 89.5481 9.898 91.065 9.26972C92.5818 8.64143 94.2075 8.31805 95.8493 8.31805C97.4911 8.31805 99.1168 8.64143 100.634 9.26972C102.15 9.898 103.529 10.8189 104.69 11.9798C105.851 13.1408 106.771 14.519 107.4 16.0358C108.028 17.5526 108.351 19.1783 108.351 20.8201C108.351 24.1359 107.034 27.3159 104.69 29.6604C102.345 32.005 99.1651 33.3222 95.8493 33.3222C92.5335 33.3222 89.3536 32.005 87.009 29.6604C84.6644 27.3159 83.3472 24.1359 83.3472 20.8201ZM95.8493 16.6528C94.7441 16.6528 93.6841 17.0918 92.9025 17.8734C92.121 18.6549 91.6819 19.7149 91.6819 20.8201C91.6819 21.9254 92.121 22.9854 92.9025 23.7669C93.6841 24.5484 94.7441 24.9875 95.8493 24.9875C96.9546 24.9875 98.0145 24.5484 98.7961 23.7669C99.5776 22.9854 100.017 21.9254 100.017 20.8201C100.017 19.7149 99.5776 18.6549 98.7961 17.8734C98.0145 17.0918 96.9546 16.6528 95.8493 16.6528ZM20.8368 8.31805C17.521 8.31805 14.3411 9.63523 11.9965 11.9798C9.6519 14.3244 8.33472 17.5044 8.33472 20.8201C8.33472 24.1359 9.6519 27.3159 11.9965 29.6604C14.3411 32.005 17.521 33.3222 20.8368 33.3222C24.1526 33.3222 27.3325 32.005 29.6771 29.6604C32.0217 27.3159 33.3389 24.1359 33.3389 20.8201C33.3389 17.5044 32.0217 14.3244 29.6771 11.9798C27.3325 9.63523 24.1526 8.31805 20.8368 8.31805ZM16.6694 20.8201C16.6694 19.7149 17.1085 18.6549 17.89 17.8734C18.6716 17.0918 19.7316 16.6528 20.8368 16.6528C21.9421 16.6528 23.002 17.0918 23.7836 17.8734C24.5651 18.6549 25.0042 19.7149 25.0042 20.8201C25.0042 21.9254 24.5651 22.9854 23.7836 23.7669C23.002 24.5484 21.9421 24.9875 20.8368 24.9875C19.7316 24.9875 18.6716 24.5484 17.89 23.7669C17.1085 22.9854 16.6694 21.9254 16.6694 20.8201ZM27.2379 41.6569C25.771 44.1895 25.0004 47.065 25.0042 49.9917H8.33472V70.8285C8.33405 72.9016 8.84894 74.9424 9.83303 76.7671C10.8171 78.5918 12.2395 80.1431 13.9722 81.2815C15.7049 82.4198 17.6935 83.1093 19.7589 83.2881C21.8244 83.4668 23.9018 83.1291 25.8043 82.3054C26.4211 85.0642 27.3879 87.698 28.6381 90.1567C25.4748 91.4339 22.0462 91.915 18.6536 91.5575C15.2609 91.2001 12.0079 90.0151 9.18021 88.1067C6.35253 86.1982 4.03667 83.6247 2.43601 80.6121C0.835356 77.5995 -0.00113392 74.2399 1.15364e-06 70.8285V49.9917C1.15364e-06 47.7812 0.878121 45.6612 2.44118 44.0981C4.00425 42.5351 6.12422 41.6569 8.33472 41.6569H27.2379ZM88.048 90.1567C91.2113 91.4339 94.6399 91.915 98.0325 91.5575C101.425 91.2001 104.678 90.0151 107.506 88.1067C110.334 86.1982 112.649 83.6247 114.25 80.6121C115.851 77.5995 116.687 74.2399 116.686 70.8285V49.9917C116.686 47.7812 115.808 45.6612 114.245 44.0981C112.682 42.5351 110.562 41.6569 108.351 41.6569H89.4482C90.8652 44.1074 91.6819 46.9495 91.6819 49.9917H108.351V70.8285C108.352 72.9016 107.837 74.9424 106.853 76.7671C105.869 78.5918 104.447 80.1431 102.714 81.2815C100.981 82.4198 98.9926 83.1093 96.9272 83.2881C94.8618 83.4668 92.7843 83.1291 90.8818 82.3054C90.2567 85.0642 89.2982 87.698 88.048 90.1567ZM41.6736 41.6486C39.4631 41.6486 37.3431 42.5267 35.7801 44.0898C34.217 45.6529 33.3389 47.7728 33.3389 49.9833V74.9958C33.3389 81.6273 35.9733 87.9873 40.6624 92.6765C45.3516 97.3656 51.7115 100 58.3431 100C64.9746 100 71.3345 97.3656 76.0237 92.6765C80.7129 87.9873 83.3472 81.6273 83.3472 74.9958V49.9917C83.3472 47.7812 82.4691 45.6612 80.906 44.0981C79.343 42.5351 77.223 41.6569 75.0125 41.6569H41.6736V41.6486ZM41.6736 49.9833H75.0125V74.9958C75.0125 79.4168 73.2563 83.6568 70.1301 86.7829C67.004 89.909 62.7641 91.6653 58.3431 91.6653C53.922 91.6653 49.6821 89.909 46.556 86.7829C43.4299 83.6568 41.6736 79.4168 41.6736 74.9958V49.9917V49.9833Z" fill="#3EE28A"/>
</svg>
