<svg width="33" height="33" viewBox="0 0 33 33" fill="none" xmlns="http://www.w3.org/2000/svg">
<path d="M1.64968 18.1502H3.29972V29.7C3.29972 31.52 4.7798 33 6.59979 33H26.4002C28.2202 33 29.7003 31.52 29.7003 29.7V18.1502H31.3503C31.6766 18.1501 31.9956 18.0533 32.2668 17.872C32.5381 17.6907 32.7496 17.433 32.8744 17.1315C32.9993 16.8301 33.032 16.4984 32.9683 16.1784C32.9047 15.8583 32.7476 15.5644 32.5169 15.3336L17.6666 0.483777C17.5135 0.330418 17.3316 0.208752 17.1315 0.12574C16.9313 0.0427281 16.7167 0 16.5 0C16.2833 0 16.0687 0.0427281 15.8685 0.12574C15.6684 0.208752 15.4865 0.330418 15.3334 0.483777L0.483109 15.3336C0.252418 15.5644 0.0953243 15.8583 0.0316864 16.1784C-0.0319514 16.4984 0.000724285 16.8301 0.125583 17.1315C0.250441 17.433 0.461875 17.6907 0.733157 17.872C1.00444 18.0533 1.32339 18.1501 1.64968 18.1502ZM13.1999 29.7V21.4501H19.8001V29.7H13.1999ZM16.5 3.98339L26.4002 13.8833V21.4501L26.4019 29.7H23.1001V21.4501C23.1001 19.6302 21.6201 18.1502 19.8001 18.1502H13.1999C11.3799 18.1502 9.89986 19.6302 9.89986 21.4501V29.7H6.59979V13.8833L16.5 3.98339Z" fill="white"/>
</svg>
