<svg width="97" height="97" viewBox="0 0 97 97" fill="none" xmlns="http://www.w3.org/2000/svg">
<path d="M48.5 74.4429C49.6206 75.1645 50.7768 75.8293 51.9643 76.4345V93.5363C51.9643 94.455 51.5993 95.336 50.9496 95.9855C50.2999 96.6351 49.4188 97 48.5 97C47.5812 97 46.7001 96.6351 46.0504 95.9855C45.4007 95.336 45.0357 94.455 45.0357 93.5363V76.4345C46.2232 75.8293 47.3794 75.1645 48.5 74.4429ZM78.8557 20.1933C76.3497 14.2109 72.1312 9.10237 66.7304 5.50959C61.3295 1.9168 54.9871 0 48.5 0C42.0129 0 35.6705 1.9168 30.2696 5.50959C24.8687 9.10237 20.6503 14.2109 18.1443 20.1933C12.7521 22.6916 8.18243 26.6728 4.96945 31.6716C1.75648 36.6704 0.0328806 42.4802 0.000102819 48.4221C-0.0432007 65.2209 13.5974 79.2487 30.3558 79.6817C35.441 79.8145 40.4812 78.6996 45.0357 76.4345V61.0212L26.1554 51.626C25.3285 51.2127 24.6997 50.4878 24.4073 49.6109C24.2626 49.1767 24.2048 48.7182 24.2372 48.2617C24.2697 47.8051 24.3918 47.3595 24.5965 46.9501C24.8012 46.5407 25.0846 46.1757 25.4304 45.8758C25.7762 45.5759 26.1777 45.3471 26.612 45.2023C27.4891 44.91 28.4464 44.9781 29.2733 45.3914L45.0357 53.3146V31.1904C45.0357 30.2718 45.4007 29.3908 46.0504 28.7412C46.7001 28.0917 47.5812 27.7268 48.5 27.7268C49.4188 27.7268 50.2999 28.0917 50.9496 28.7412C51.5993 29.3908 51.9643 30.2718 51.9643 31.1904V42.9236L67.7267 35.0005C68.5536 34.5871 69.5109 34.5191 70.388 34.8114C71.2651 35.1037 71.9901 35.7323 72.4035 36.5591C72.817 37.3859 72.885 38.343 72.5927 39.2199C72.3003 40.0968 71.6715 40.8217 70.8446 41.235L51.9643 50.6302V76.4345C56.2711 78.5706 61.0137 79.682 65.8214 79.6817H66.6442C83.4026 79.2487 97.0432 65.2209 96.9999 48.4221C96.9671 42.4802 95.2435 36.6704 92.0306 31.6716C88.8176 26.6728 84.248 22.6916 78.8557 20.1933Z" fill="white"/>
</svg>
