<svg width="101" height="100" viewBox="0 0 101 100" fill="none" xmlns="http://www.w3.org/2000/svg">
<path d="M0.997986 50C0.997986 36.7392 6.26583 24.0215 15.6426 14.6447C25.0195 5.26784 37.7372 0 50.998 0C64.2588 0 76.9765 5.26784 86.3533 14.6447C95.7301 24.0215 100.998 36.7392 100.998 50C100.998 63.2608 95.7301 75.9785 86.3533 85.3553C76.9765 94.7322 64.2588 100 50.998 100C37.7372 100 25.0195 94.7322 15.6426 85.3553C6.26583 75.9785 0.997986 63.2608 0.997986 50V50ZM50.998 7.1449H50.6407C51.2981 8.43098 52.0126 9.96713 52.6556 11.6748C54.3918 16.2904 55.9708 23.0494 53.1629 29.0226C50.5764 34.5241 46.1252 35.9531 42.8028 36.8105L42.3169 36.932C39.0874 37.7679 37.7442 38.1109 36.7796 39.5756C35.8794 40.9474 36.0366 42.6693 37.0654 46.006L37.2941 46.7562C37.7013 48.0566 38.1872 49.5999 38.4373 51.0574C38.7588 52.8722 38.8445 55.1443 37.7013 57.345C36.7274 59.3113 35.1771 60.9338 33.2572 61.9963C31.5782 62.9108 29.8276 63.2609 28.513 63.4967L28.02 63.5825C25.4621 64.0326 24.1617 64.2612 22.9185 65.5973C21.9397 66.6476 21.3324 68.4696 20.9751 71.1132C20.8322 72.1921 20.7465 73.2638 20.6536 74.3713L20.6107 74.9571C20.5107 76.1718 20.3821 77.5579 20.1106 78.7439L19.9391 79.5299C23.9375 83.7473 28.7541 87.1048 34.0944 89.3972C39.4347 91.6896 45.1865 92.8686 50.998 92.8622C58.6759 92.8737 66.2145 90.8125 72.8185 86.8963C72.1631 86.2532 71.5475 85.5708 70.9751 84.8528C69.2818 82.7236 67.0883 79.0869 67.8457 74.8071C68.21 72.7565 69.3104 71.0274 70.3892 69.6913C71.4896 68.3338 72.8185 67.0763 73.9831 65.9974C74.247 65.7564 74.5114 65.5158 74.7762 65.2758C75.6693 64.4541 76.441 63.7539 77.0912 63.068C77.4138 62.7425 77.7123 62.3938 77.9843 62.0249C78.1486 61.7891 78.1986 61.6676 78.2058 61.6462C78.563 60.453 78.1343 59.5742 77.6056 59.1669C77.2126 58.8668 76.2123 58.4167 74.419 59.5456C73.823 59.9324 73.2204 60.3087 72.6113 60.6745C72.0027 61.0514 71.3401 61.3333 70.6465 61.5104C69.706 61.7356 68.7152 61.5952 67.8743 61.1177C67.0333 60.6402 66.4051 59.8612 66.1166 58.9383C65.9743 58.4756 65.9068 57.9932 65.9165 57.5093C65.9175 57.0568 65.9557 56.6051 66.0309 56.1589C66.2095 54.6585 66.481 52.4436 65.6236 49.1426C64.9305 46.4919 63.9231 44.4698 62.8942 42.4121C62.403 41.4427 61.9361 40.4611 61.4938 39.4684C60.8651 38.0394 60.1792 36.1818 60.3006 34.2098C60.4435 31.9234 61.5939 30.0657 63.4587 28.6653C65.7236 26.9648 68.5744 23.0709 71.0394 19.134C72.2183 17.2549 73.2329 15.4901 73.9474 14.2041L74.1117 13.904C67.2163 9.47768 59.1918 7.13113 50.998 7.1449V7.1449ZM79.8419 18.2981C79.1132 19.5842 78.1772 21.2061 77.0983 22.928C74.6762 26.7862 71.2109 31.7877 67.7456 34.3812C67.6296 34.4633 67.524 34.5593 67.4313 34.667C67.4313 34.86 67.5027 35.3887 68.0314 36.5962C68.2672 37.1177 68.5887 37.7751 68.9603 38.5253C70.082 40.7688 71.6467 43.9197 72.5327 47.3421C73.0114 49.1712 73.2401 50.8002 73.3186 52.2078C76.4338 51.1789 79.5633 51.6505 81.9783 53.5153C84.9648 55.8231 86.2152 59.8385 85.0506 63.7182C84.5076 65.4901 83.2643 66.9548 82.2641 68.0051C81.421 68.884 80.4064 69.8057 79.4918 70.6488L78.8202 71.2561C77.7969 72.1633 76.8394 73.1423 75.9551 74.1855C75.1978 75.1143 74.9405 75.7216 74.8834 76.0574C74.669 77.2364 75.2478 78.7511 76.5696 80.4158C77.2252 81.2318 77.9599 81.9809 78.7631 82.6522C83.499 78.6323 87.3023 73.6288 89.9083 67.9899C92.5143 62.351 93.8604 56.212 93.8531 50C93.8531 37.4393 88.4515 26.136 79.8419 18.2981V18.2981ZM8.14288 50C8.13001 57.4502 10.0687 64.7737 13.7659 71.2418L13.8945 70.17C14.2804 67.2764 15.0949 63.5039 17.6956 60.7245C20.6536 57.5522 24.2904 56.952 26.6124 56.5733C26.8411 56.5376 27.0626 56.5019 27.2626 56.459C28.5058 56.2446 29.2561 56.0446 29.8348 55.7231C30.5099 55.3367 31.0452 54.7464 31.3638 54.0369C31.4638 53.844 31.5996 53.3938 31.4067 52.2864C31.2423 51.3361 30.928 50.343 30.5279 49.064C30.4294 48.7451 30.3318 48.426 30.2349 48.1066C29.3061 45.07 27.8485 40.14 30.8065 35.6459C33.3858 31.7376 37.5227 30.7445 40.1949 30.0943L41.0094 29.8943C43.8531 29.1583 45.5321 28.4653 46.6968 25.986C48.2115 22.7565 47.5541 18.3981 45.968 14.1969C45.1371 12.012 44.1088 9.90749 42.8957 7.9094C33.1152 9.79529 24.2966 15.0281 17.9548 22.709C11.6129 30.3898 8.14368 40.0393 8.14288 50V50Z" fill="#3EE28A"/>
</svg>
