<svg width="75" height="100" viewBox="0 0 75 100" fill="none" xmlns="http://www.w3.org/2000/svg">
<path d="M40.0999 1.39133C39.8145 0.963333 39.4279 0.61241 38.9743 0.3697C38.5208 0.12699 38.0143 0 37.4999 0C36.9855 0 36.479 0.12699 36.0255 0.3697C35.5719 0.61241 35.1853 0.963333 34.8999 1.39133L16.1499 29.5163C15.8367 29.9869 15.6571 30.5336 15.6301 31.0983C15.6031 31.6629 15.7297 32.2242 15.9965 32.7226C16.2633 33.2209 16.6603 33.6376 17.1452 33.9281C17.63 34.2187 18.1846 34.3723 18.7499 34.3726H19.3624L6.7249 54.5913C6.42925 55.0644 6.26561 55.6079 6.25097 56.1656C6.23632 56.7232 6.37121 57.2746 6.64163 57.7625C6.91205 58.2504 7.30814 58.657 7.78877 58.9401C8.26941 59.2233 8.81707 59.3726 9.3749 59.3726H10.5686L0.331146 79.8476C0.0924065 80.324 -0.0205316 80.8536 0.0030657 81.386C0.026663 81.9183 0.186012 82.4358 0.465967 82.8893C0.745923 83.3427 1.13718 83.717 1.60257 83.9766C2.06795 84.2363 2.592 84.3726 3.1249 84.3726H31.2499V99.9976H43.7499V84.3726H71.8749C72.4078 84.3726 72.9318 84.2363 73.3972 83.9766C73.8626 83.717 74.2539 83.3427 74.5338 82.8893C74.8138 82.4358 74.9731 81.9183 74.9967 81.386C75.0203 80.8536 74.9074 80.324 74.6686 79.8476L64.4374 59.3726H65.6311C66.189 59.3726 66.7366 59.2233 67.2173 58.9401C67.6979 58.657 68.094 58.2504 68.3644 57.7625C68.6348 57.2746 68.7697 56.7232 68.7551 56.1656C68.7404 55.6079 68.5768 55.0644 68.2811 54.5913L55.6374 34.3726H56.2499C56.8152 34.3723 57.3698 34.2187 57.8546 33.9281C58.3395 33.6376 58.7365 33.2209 59.0033 32.7226C59.2701 32.2242 59.3967 31.6629 59.3697 31.0983C59.3427 30.5336 59.1631 29.9869 58.8499 29.5163L40.0999 1.39133ZM27.7311 29.7351C27.4612 29.247 27.0656 28.8401 26.5853 28.5566C26.105 28.273 25.5576 28.1232 24.9999 28.1226H24.5874L37.4999 8.75383L50.4124 28.1226H49.9999C49.4421 28.1226 48.8944 28.2719 48.4138 28.555C47.9331 28.8382 47.537 29.2448 47.2666 29.7327C46.9962 30.2206 46.8613 30.772 46.876 31.3296C46.8906 31.8872 47.0542 32.4308 47.3499 32.9038L59.9874 53.1226H59.3749C58.842 53.1226 58.318 53.2589 57.8526 53.5185C57.3872 53.7781 56.9959 54.1524 56.716 54.6059C56.436 55.0593 56.2767 55.5768 56.2531 56.1092C56.2295 56.6416 56.3424 57.1711 56.5811 57.6476L66.8124 78.1226H8.18115L18.4186 57.6476C18.6574 57.1711 18.7703 56.6416 18.7467 56.1092C18.7231 55.5768 18.5638 55.0593 18.2838 54.6059C18.0039 54.1524 17.6126 53.7781 17.1472 53.5185C16.6818 53.2589 16.1578 53.1226 15.6249 53.1226H15.0124L27.6499 32.9038C27.9448 32.4309 28.1078 31.8877 28.1221 31.3305C28.1364 30.7734 28.0014 30.2225 27.7311 29.7351Z" fill="#3EE28A"/>
</svg>
